<svg version="1.1" xmlns="http://www.w3.org/2000/svg" xmlns:xlink="http://www.w3.org/1999/xlink" width="140.44925" height="93.14332" viewBox="0,0,140.44925,93.14332"><g transform="translate(-170.99937,-128.99947)"><g data-paper-data="{&quot;isPaintingLayer&quot;:true}" fill="none" fill-rule="nonzero" stroke="none" stroke-width="1" stroke-linecap="butt" stroke-linejoin="miter" stroke-miterlimit="10" stroke-dasharray="" stroke-dashoffset="0" font-family="none" font-weight="none" font-size="none" text-anchor="none" style="mix-blend-mode: normal"><g id="Body"><g id="Teeth" fill="#ffffff" stroke="#000000"><path d="M257.652,187.128c0.969,-0.229 2.943,-0.013 2.984,0.369c0.043,0.381 -1.83,0.813 -2.764,0.979z"/><path d="M258.505,192.201c0.943,-0.49 3.039,-0.784 3.181,-0.399c0.142,0.384 -1.687,1.321 -2.605,1.735z"/><path d="M257.799,189.227c0.969,-0.229 2.942,-0.014 2.984,0.367c0.042,0.383 -1.831,0.815 -2.762,0.979z"/><path d="M257.752,183.867c1.107,-0.001 3.199,0.736 3.15,1.16c-0.049,0.426 -2.19,0.42 -3.244,0.361z"/><path d="M259.566,195.427c0.799,-0.706 2.763,-1.506 2.99,-1.169c0.228,0.338 -1.322,1.696 -2.117,2.325z"/><path d="M261.695,197.823c0.693,-0.813 2.527,-1.882 2.8,-1.578c0.272,0.301 -1.076,1.864 -1.777,2.601z"/><path d="M257.928,180.412c1.215,0.148 3.408,1.242 3.299,1.701c-0.106,0.46 -2.457,0.16 -3.602,-0.047z"/><path d="M258.96,176.891c1.169,0.36 3.144,1.822 2.956,2.256c-0.188,0.434 -2.445,-0.273 -3.539,-0.681z"/><path d="M260.627,173.147c1.234,0.581 3.186,2.502 2.913,2.949c-0.271,0.447 -2.651,-0.686 -3.793,-1.305z"/><path d="M263.04,169.716c1.153,0.73 2.858,2.877 2.536,3.288c-0.323,0.41 -2.551,-1.009 -3.609,-1.765z"/><path d="M266.568,202.143c0.621,-0.871 2.355,-2.099 2.654,-1.818c0.297,0.275 -0.912,1.953 -1.549,2.746z"/><path d="M263.85,200.127c0.693,-0.812 2.528,-1.881 2.801,-1.579c0.271,0.304 -1.073,1.867 -1.774,2.603z"/><path d="M278.971,208.413c0.43,-1.146 1.985,-3.017 2.393,-2.8c0.408,0.217 -0.436,2.426 -0.901,3.49z"/><path d="M275.283,207.732c0.432,-1.146 2.24,-3.586 2.646,-3.369c0.405,0.217 -0.688,2.994 -1.156,4.059z"/><path d="M272.059,205.973c0.435,-1.146 1.987,-3.018 2.396,-2.801c0.406,0.217 -0.412,2.592 -0.885,3.654z"/><path d="M269.074,204.327c0.543,-0.923 2.167,-2.298 2.486,-2.05c0.317,0.25 -0.74,2.027 -1.308,2.875z"/><path d="M266.509,166.345c1.171,1.065 2.685,3.856 2.235,4.257c-0.45,0.401 -2.701,-1.668 -3.758,-2.742z"/><path d="M291.252,155.595c0.325,1.854 -0.264,5.569 -0.969,5.611c-0.705,0.042 -1.319,-3.545 -1.531,-5.324z"/><path d="M285.609,156.232c0.422,1.834 0.021,5.576 -0.678,5.655c-0.703,0.079 -1.5,-3.47 -1.807,-5.235z"/><path d="M279.798,157.367c0.668,1.757 0.788,5.518 0.103,5.696c-0.684,0.178 -1.961,-3.225 -2.504,-4.93z"/><path d="M274.596,159.636c0.784,1.493 1.299,4.835 0.706,5.07c-0.591,0.234 -2.098,-2.659 -2.766,-4.12z"/><path d="M270.248,162.633c0.982,1.368 1.949,4.604 1.396,4.92c-0.556,0.316 -2.442,-2.336 -3.307,-3.688z"/><path d="M302.538,155.737c-0.32,1.855 -2.127,5.142 -2.804,4.937c-0.678,-0.206 -0.045,-3.79 0.354,-5.535z"/><path d="M296.914,155.426c0.036,1.883 -1.119,5.459 -1.822,5.389c-0.703,-0.07 -0.757,-3.71 -0.691,-5.501z"/><path d="M307.854,157.395c-0.567,1.792 -2.81,4.791 -3.451,4.493c-0.645,-0.299 0.477,-3.759 1.111,-5.43z"/></g><path d="M308.046,155.133c-5.702,-1.951 -16.345,-2.703 -22.505,-1.191c-11.917,2.927 -22.679,8.993 -28.275,24.248c-1.304,3.546 -1.158,8.253 -0.371,12.146c0.58,2.874 3.15,7.414 5.029,9.645c5.007,5.955 7.929,8.558 15.65,10.774c-5.391,4.154 -12.725,4.781 -19.102,3.071c-0.99,-0.267 -1.955,-0.617 -2.922,-0.956l0.001,-0.001c-6.573,-2.756 -13.042,-6.809 -17.864,-9.799c-1.445,-0.896 -6.839,-3.9 -6.839,-3.9c-8.533,-3.845 -19.812,-6.35 -29.167,-6.354c-0.515,0 -4.72,-0.155 -4.626,0.244c1.864,7.916 -0.205,20.688 -5.198,23.834c-1.756,1.106 -4.757,2.828 -6.848,2.127c-0.857,-0.285 -1.601,-0.974 -2.003,-1.795c-0.373,-0.767 -0.779,-2.941 -0.895,-3.836c-1.114,-8.566 5.511,-18.675 8.656,-22.693c-9.229,-1.263 -20.265,-12.878 -16.24,-23.854c9.994,-0.725 17.092,7.176 19.566,16.259c0.252,0.933 0.171,2.037 0.745,2.836c1.868,-1.148 22.516,-14.161 23.711,-15.456c0.204,-0.219 -14.176,-17.814 -12.065,-23.49c2.891,-7.77 24.163,10.764 29.262,9.493c0.002,0 0.005,0.001 0.007,0.001c0.007,-0.002 0.014,-0.011 0.021,-0.013c0.148,-0.04 0.286,-0.091 0.405,-0.167l0.009,0.008c0.018,-0.015 0.035,-0.029 0.053,-0.044c0.032,-0.024 0.074,-0.036 0.104,-0.062c0.024,-0.021 0.035,-0.046 0.051,-0.069c23.694,-20.396 48.53,-23.039 64.429,-10.459c3.083,2.439 5.013,4.902 7.221,9.453z" id="Fill" fill="#2f8eff" stroke="none"/><path d="M310.231,158.716c-1.354,-0.239 -4.062,-1.717 -5.895,-2.145c-5.333,-1.247 -11.15,-1.159 -16.562,-0.502c-9.668,1.174 -19.147,6.592 -24.596,14.889c-4.743,7.22 -6.403,17.621 -1.353,25.05c4.831,7.101 11.558,12.499 20.358,12.947c1.896,1.147 0.205,2.007 -0.932,2.837c-6.197,4.529 -12.86,5.327 -20.217,4.301c-0.842,-0.118 -5.956,-1.366 -8.106,-2.348c-4.881,-2.229 -18.116,-10.59 -22.313,-12.4c-9.96,-4.294 -20.139,-6.729 -31.114,-6.396c2.032,9.71 -0.499,21.675 -10.114,25.679c-1.817,0.757 -4.355,2.292 -6.289,1.04c-3.419,-2.214 -4.288,-9.255 -3.68,-12.947c0.852,-5.185 4.875,-14.055 8.944,-17.349c-3.07,-0.56 -5.493,-1.556 -8.711,-3.546c-2.695,-1.666 -4.001,-3.667 -5.59,-6.333c-2.608,-4.375 -3.161,-8.177 -3.048,-13.233c0.01,-0.438 0.073,-2.949 0.159,-3.212c0.552,-1.699 3.472,-1.375 4.798,-1.228c9.514,1.043 18.57,9.721 19.985,19.376c0,0 12.302,-8.194 18.448,-12.24c-1.305,-2.537 -7.401,-13.598 -8.804,-16.921c-1.167,-2.764 -2.521,-6.712 -0.699,-9.499c4.767,-7.293 24.979,6.76 30.768,10.324c7.232,-7.053 19.053,-14.833 28.353,-18.042c10.689,-3.688 26.088,-3.19 37.588,5.308c3.762,2.776 9.424,10.239 9.83,15.077c0.069,0.804 -0.223,1.688 -1.208,1.513zM308.046,155.133c-2.208,-4.551 -4.138,-7.014 -7.221,-9.453c-15.899,-12.58 -40.735,-9.937 -64.429,10.459c-0.016,0.023 -0.027,0.048 -0.051,0.069c-0.029,0.027 -0.071,0.039 -0.104,0.062c-0.018,0.015 -0.035,0.029 -0.053,0.044l-0.009,-0.008c-0.119,0.075 -0.257,0.127 -0.405,0.167c-0.01,0.003 -0.018,0.01 -0.028,0.012c-5.099,1.271 -26.371,-17.264 -29.262,-9.493c-2.111,5.676 12.269,23.271 12.065,23.49c-1.195,1.295 -21.843,14.309 -23.711,15.456c-0.574,-0.799 -0.493,-1.903 -0.745,-2.836c-2.474,-9.084 -9.572,-16.985 -19.566,-16.259c-4.025,10.976 7.011,22.59 16.24,23.854c-3.145,4.017 -9.77,14.127 -8.656,22.693c0.116,0.895 0.522,3.069 0.895,3.836c0.402,0.821 1.146,1.51 2.003,1.795c2.091,0.701 5.092,-1.022 6.848,-2.127c4.993,-3.146 7.062,-15.918 5.198,-23.834c-0.094,-0.399 4.111,-0.244 4.626,-0.244c9.355,0.004 20.634,2.509 29.167,6.354c0,0 5.393,3.004 6.839,3.9c4.822,2.99 11.291,7.043 17.864,9.799l-0.001,0.001c0.967,0.339 1.932,0.689 2.922,0.956c6.377,1.71 13.711,1.083 19.102,-3.071c-7.72,-2.215 -10.642,-4.819 -15.65,-10.774c-1.879,-2.232 -4.449,-6.772 -5.029,-9.645c-0.787,-3.893 -0.933,-8.6 0.371,-12.146c5.595,-15.255 16.358,-21.321 28.275,-24.248c6.16,-1.512 16.803,-0.76 22.505,1.191z" id="Outline" fill="#000000" stroke="none"/><path d="M250.973,192.746c-6.252,-3.096 -7.216,-15.947 -4.332,-21.365c0.613,-1.155 2.125,-3.783 2.98,-3.402c1.59,0.705 -0.131,2.106 -0.652,3.213c-2.296,4.884 -1.9,12.076 0.26,16.932c0.556,1.242 1.623,2.147 2.447,3.106c0.844,0.978 0.176,1.952 -0.703,1.516z" id="Gill_1_" fill="#000000" stroke="none"/><path d="M239.559,175.35c-0.17,1.878 -0.405,2.244 -0.419,3.876c-0.042,5.209 1.723,7.94 4.706,10.872c0.729,0.717 0.553,1.842 -0.56,1.7c-2.282,-0.284 -3.354,-2.739 -4.379,-4.539c-1.537,-3.069 -2.188,-7.943 -1.73,-11.568c0.291,-2.304 2.577,-2.493 2.382,-0.341z" id="Gill" fill="#000000" stroke="none"/></g><g id="Fin" stroke="none"><path d="M239.559,199.172c-0.035,-0.255 -0.119,-0.697 -0.275,-1.04c1.861,-0.642 11.287,-3.351 14.507,6.035c-1.597,-0.044 -2.122,3.025 -2.82,3.985c-3.427,4.695 -10.19,8.037 -15.978,7.373c-1.218,-0.139 -3.89,-0.311 -4.472,-1.606c-1.139,-2.539 10.04,-7.452 9.038,-14.747z" id="Fill_1_" fill="#2f8eff"/><path d="M255.349,207.493c-1.201,3.532 -5.425,5.774 -9.41,7.702c-2.223,1.074 -4.49,1.683 -6.94,2.033c-2.545,0.362 -13.471,0.235 -13.276,-3.642c0.173,-3.439 10.833,-6.368 12.531,-15.642c0.499,-0.541 0.825,-0.262 1.03,0.188c0.155,0.343 0.24,0.785 0.275,1.04c1.002,7.295 -10.177,12.208 -9.038,14.747c0.582,1.294 3.254,1.466 4.472,1.606c5.789,0.664 12.551,-2.678 15.978,-7.373c0.698,-0.96 1.222,-4.029 2.82,-3.985c0.167,0.004 0.342,0.031 0.534,0.11c0.928,0.377 1.316,2.354 1.024,3.216z" id="Outline_1_" fill="#000000"/></g><g id="L_Eye" stroke="none"><path d="M262.152,131.395c-0.674,0.259 -1.852,-0.03 -2.562,-0.141c-2.816,-0.439 -8.146,0.635 -10.296,-0.331c-0.243,-0.109 -0.415,-0.553 -0.326,-0.803c0.733,-2.04 11.373,-0.157 12.952,0.708c0.18,0.098 0.266,0.378 0.232,0.567z" fill="#000000"/><path d="M250.599,145.669c-3.945,-6.354 1.344,-14.981 8.385,-15.313c3.103,-0.148 7.303,1.82 8.711,4.773c5.073,10.636 -12.349,18.184 -17.096,10.54zM265.228,135.365c-2.373,-3.512 -7.871,-3.517 -10.521,-0.241c-2.62,3.237 -3.618,8.243 -0.66,10.545c2.689,2.093 6.816,0.724 9.5,-1.89c2.398,-2.337 3.574,-5.615 1.681,-8.414z" fill="#000000"/><path d="M265.229,135.365c1.892,2.799 0.716,6.077 -1.682,8.414c-2.684,2.614 -6.811,3.983 -9.5,1.89c-2.958,-2.302 -1.96,-7.308 0.66,-10.545c2.65,-3.276 8.148,-3.271 10.522,0.241z" fill="#ffffff"/><path d="M260.293,139.534c0,-1.50111 1.46044,-2.718 3.262,-2.718c1.80156,0 3.262,1.21689 3.262,2.718c0,1.50111 -1.46044,2.718 -3.262,2.718c-1.80156,0 -3.262,-1.21689 -3.262,-2.718z" fill="#000000"/></g><g id="R_Eye" stroke="none"><path d="M281.667,132.074c0.947,-0.881 8.024,-4.06 8.878,-2.771c0.102,0.158 0.059,0.496 -0.089,0.615c-1.331,1.049 -5.217,1.239 -7.102,2.04c-0.475,0.202 -1.244,0.611 -1.756,0.549c-0.054,-0.126 -0.043,-0.334 0.069,-0.433z" fill="#000000"/><path d="M291.428,141.941c-5.046,7.637 -15.878,0.069 -12.246,-7.548c1.01,-2.116 4.017,-3.524 6.239,-3.419c5.043,0.238 8.958,6.5 6.007,10.967zM288.402,135.043c-1.693,-2.313 -4.816,-2.599 -7.027,-0.168c-3.098,3.407 2.163,10.324 7.206,6.642c1.867,-1.363 1.357,-4.376 -0.179,-6.474z" fill="#000000"/><path d="M288.402,135.043c1.535,2.098 2.046,5.111 0.179,6.474c-5.043,3.682 -10.304,-3.235 -7.206,-6.642c2.211,-2.431 5.334,-2.145 7.027,0.168z" fill="#ffffff"/><path d="M286.119,137.974c0,-1.1123 1.08213,-2.014 2.417,-2.014c1.33487,0 2.417,0.9017 2.417,2.014c0,1.1123 -1.08213,2.014 -2.417,2.014c-1.33487,0 -2.417,-0.9017 -2.417,-2.014z" fill="#000000"/></g></g></g></svg>