<svg xmlns="http://www.w3.org/2000/svg" xmlns:xlink="http://www.w3.org/1999/xlink" version="1.1" width="56.4713327331543" height="69.02510089111328" viewBox="0.5019668617248535 0.5524374523162842 56.4713327331543 69.02510089111328">
  <!-- Exported by Scratch - http://scratch.mit.edu/ -->
  <path id="ID0.8442867668345571" fill="none" stroke="#FFFFFF" stroke-width="1.995125" stroke-linecap="round" d="M 6.55 13.3 C 6.55 13.3 3.834 15.526 2.85 16.95 C 2.192 17.903 1.874 19.098 1.75 20.25 C 1.503 22.551 1.339 24.922 1.75 27.2 C 1.974 28.44 3.037 29.373 3.6 30.5 C 3.772 30.844 3.808 31.742 3.95 31.6 C 4.146 31.404 4.322 30.57 4.35 29.75 C 4.462 26.472 4.263 23.179 4.35 19.9 C 4.379 18.795 4.328 17.64 4.7 16.6 C 4.849 16.183 5.434 16.1 5.8 15.85 Z "/>
  <path id="ID0.6507269609719515" fill="none" stroke="#FFFFFF" stroke-width="1.995125" stroke-linecap="round" d="M 41.7 3.05 C 41.7 3.05 42.406 4.786 43.15 5.25 C 44.459 6.067 46.145 6.063 47.55 6.7 C 48.843 7.286 50.13 7.967 51.2 8.9 C 52.114 9.697 52.908 10.692 53.4 11.8 C 54.392 14.033 55.032 16.424 55.6 18.8 C 55.77 19.513 55.556 20.269 55.6 21 C 55.673 22.219 56.081 23.436 55.95 24.65 C 55.826 25.802 55.33 29.063 54.85 27.95 C 52.928 23.499 52.425 18.41 51.2 13.65 C 50.227 9.868 49.378 6.039 48.25 2.3 C 47.968 1.365 47.783 1.8 47.55 1.55 "/>
  <path id="ID0.31621858663856983" fill="none" stroke="#FFFFFF" stroke-width="1.995125" stroke-linecap="round" d="M 22.65 31.6 C 22.65 31.6 22.284 46.516 22.65 53.95 C 22.741 55.808 23.616 54.291 23.75 53.95 C 24.202 52.798 24.162 51.486 24.1 50.25 C 24.044 49.128 23.608 48.054 23.4 46.95 C 23.241 46.105 23.034 45.259 23 44.4 C 22.9 41.838 23 39.264 23 36.7 "/>
  <path id="ID0.5860689729452133" fill="none" stroke="#FFFFFF" stroke-width="1.995125" stroke-linecap="round" d="M 43.15 45.85 C 43.15 45.85 43.41 48.049 43.5 49.15 C 43.66 51.113 43.739 53.087 43.9 55.05 C 43.989 56.135 44.134 57.218 44.25 58.3 C 44.367 59.399 44.073 60.629 44.6 61.6 C 44.917 62.184 46.062 62.861 46.45 62.35 C 47.162 61.411 47.075 59.89 46.8 58.7 C 46.321 56.63 44.82 54.897 44.25 52.85 C 43.955 51.791 44.337 50.645 44.25 49.55 C 44.22 49.167 44.017 48.816 43.9 48.45 Z "/>
  <path id="ID0.18296536151319742" fill="none" stroke="#FFFFFF" stroke-width="1.995125" stroke-linecap="round" d="M 6.9 49.55 C 6.9 49.55 6.578 52.48 6.55 53.95 C 6.461 58.578 5.506 63.341 6.55 67.85 C 6.811 68.977 8.803 68.552 9.85 68.2 C 10.832 67.87 11.842 67.015 12.05 66 C 12.491 63.843 11.893 61.588 11.65 59.4 C 11.526 58.284 11.478 57.092 10.95 56.1 C 10.469 55.196 9.171 54.884 8.75 53.95 C 8.14 52.595 8.416 50.977 8 49.55 C 7.896 49.193 7.5 49.05 7.25 48.8 Z "/>
</svg>