<svg version="1.1" xmlns="http://www.w3.org/2000/svg" xmlns:xlink="http://www.w3.org/1999/xlink" width="112.01339" height="64.30859" viewBox="0,0,112.01339,64.30859"><defs><linearGradient x1="0" y1="360.94671" x2="0" y2="360.94671" gradientUnits="userSpaceOnUse" id="color-1"><stop offset="0" stop-color="#000000" stop-opacity="0"/><stop offset="1" stop-color="#000000"/></linearGradient></defs><g transform="translate(-183.05186,-148.31906)"><g data-paper-data="{&quot;isPaintingLayer&quot;:true}" fill="none" fill-rule="none" stroke="none" stroke-width="none" stroke-linecap="butt" stroke-linejoin="miter" stroke-miterlimit="10" stroke-dasharray="" stroke-dashoffset="0" font-family="none" font-weight="none" font-size="none" text-anchor="none" style="mix-blend-mode: normal"><g data-paper-data="{&quot;index&quot;:null}" id="flipper1" fill-rule="nonzero" stroke-width="1"><path d="M266,197.74671c0,0 0.6,6 0.1,8c-0.8,3.1 -0.8,3.1 -2.1,3.7c-0.3,0.1 -0.8,0.1 -1.2,0.3c-0.6,0.2 -1.2,0.8 -1.8,1.2c-2.1,1.4 -3.6,2.2 -6.2,1.3c-1.1,-0.4 -1.8,-0.2 -2.7,-0.8c-0.7,-0.5 -1.4,-0.6 -2.2,-0.9c-2.2,-1 -1.3,-3.6 -3,-5.1c-1.7,-1.5 -4.2,-0.5 -6.1,-1.1c-0.6,-0.2 -1,-0.8 -1.6,-1.1c-0.7,-0.3 -1.6,-0.3 -2.3,-0.3c-2.6,0.1 -5.4,1.1 -7.9,1.9c-2.1,0.7 -3.9,2 -6.2,1.7c-1.9,-0.3 -3.7,-0.1 -5.6,-0.8c-2.5,-1 -3.6,-2.7 -4.9,-4.9c-0.8,-1.3 -1,-4 -0.7,-5.5c0.4,-1.8 1.9,-3.1 2.2,-4.8c0.3,-1.3 -0.3,-1.2 1.2,-1.5z" id="Shape" fill="#120201"/><path d="M266.8,195.74671c0,0 0.6,6 0.1,8c-0.8,3.1 -0.8,3.1 -2.1,3.7c-0.3,0.1 -0.8,0.1 -1.2,0.3c-0.6,0.2 -1.2,0.8 -1.8,1.2c-2.1,1.4 -3.6,2.2 -6.2,1.3c-1.1,-0.4 -1.8,-0.2 -2.7,-0.8c-0.7,-0.5 -1.4,-0.6 -2.2,-0.9c-2.2,-1 -1.3,-3.6 -3,-5.1c-1.7,-1.5 -4.2,-0.5 -6.1,-1.1c-0.6,-0.2 -1,-0.8 -1.6,-1.1c-0.7,-0.3 -1.6,-0.3 -2.3,-0.3c-2.6,0.1 -5.4,1.1 -7.9,1.9c-2.1,0.7 -3.9,2 -6.2,1.7c-1.9,-0.3 -3.7,-0.1 -5.6,-0.8c-2.6,-1 -3.3,-4.1 -4.6,-6.3c-0.8,-1.4 0.6,-3.9 0.9,-5.4c0.3,-1.8 1.5,-1.7 1.8,-3.4c0.3,-1.3 -0.3,-1.2 1.2,-1.5z" id="Shape" fill="#e85f1a"/><path d="M247,205.24671c-1.6,-1.5 -4.1,-0.5 -6.1,-1.1c-0.6,-0.2 -1,-0.8 -1.6,-1.1c-0.7,-0.3 -1.6,-0.3 -2.3,-0.3c-2.1,0.1 -4.3,0.8 -6.4,1.4c1,-1.9 1.8,-4.1 2.5,-5.7c0.1,-0.3 0.3,-0.6 0.4,-0.9v0v-0.1c0,-0.1 0.1,-0.1 0.1,-0.2c0.3,-0.7 0.5,-1.3 0.7,-2c0.3,-1 0.6,-2 0.9,-3l17.2,2.9c-0.5,1.4 -1,2.6 -1.5,3.8c-0.1,0.3 -0.8,1.9 -1,2.2c-0.9,1.9 -2.9,4.2 -2.9,4.1c0,0.1 0,0.1 0,0z" id="Shape" fill="#fcc3ac"/><path d="M229.5,198.14671c-0.8,2.8 -1.9,5.4 -3.4,7.9c-0.5,0.2 -1,0.3 -1.5,0.4c1.8,-2.7 3.1,-5.6 3.9,-8.7c-1.4,-0.5 -2.7,-1.1 -4.1,-1.7c-1,3.6 -2.1,7.1 -4,10.3c-0.4,0 -0.7,0 -1.1,-0.1c2,-3.2 3.2,-6.9 4.2,-10.6c-0.6,-0.3 -1.3,-0.6 -1.9,-1c-0.2,-0.1 -0.4,-0.2 -0.6,-0.3c-1.5,3.7 -3.4,7.1 -5.8,10.3c-0.3,-0.2 -0.5,-0.4 -0.7,-0.7c2.3,-3.1 4.2,-6.5 5.6,-10.1c-0.6,-0.3 -1.2,-0.7 -1.8,-1.1c-0.9,1.6 -2.1,3 -3.4,4.2c-1,0.9 -1.9,2 -3,2.9c-0.1,-0.3 -0.2,-0.7 -0.3,-1.1c0.9,-0.8 1.7,-1.8 2.5,-2.6c1.3,-1.2 2.4,-2.5 3.3,-4c-1.2,-0.8 -2.4,-1.5 -3.6,-2.4v0c0,-0.1 0,-0.1 0,-0.2v-0.1v0v-0.1v0c0,0 0,-0.1 0.1,-0.1v0c0,0 0.1,0 0.1,-0.1v0c0.1,0 0.2,-0.1 0.4,-0.1c0,0 0,0 0.1,0c0.1,0 0.2,0 0.3,-0.1l22.1,3.7l-1.7,7c-0.1,0 -5.4,-1.4 -5.7,-1.5z" id="Shape" fill="#ff7b24"/><path d="M245.9,201.14671c-0.3,1.1 -0.7,2.2 -1.1,3.3c-0.3,0 -0.6,0 -0.8,0c0.4,-1.1 0.8,-2.2 1.1,-3.3c-1.3,-0.1 -2.6,-0.2 -4,-0.4c-0.1,0 -0.1,0 -0.2,0c-0.3,1 -0.7,1.9 -1,2.9c-0.2,-0.2 -0.4,-0.3 -0.6,-0.4v0c0.3,-0.8 0.6,-1.7 0.9,-2.5c-1.3,-0.2 -2.6,-0.4 -3.9,-0.7c-0.4,1.1 -0.8,2.1 -1.3,3.2c-0.3,0.1 -0.6,0.1 -1,0.2c0.5,-1.2 1.4,-3.6 1.4,-3.6l1.7,-7l1.3,0.2l3.7,0.6l2.2,0.4l3.4,0.4z" id="Shape" fill="#ffffff"/><path d="M263.6,199.04671c0.2,3.6 0.1,7.2 -0.7,10.6c-0.4,0.2 -0.8,0.5 -1.2,0.8c0.9,-3.6 1.1,-7.4 0.9,-11.1c-0.9,0.3 -1.8,0.5 -2.7,0.7c0.1,4.2 -0.2,8.3 -1.5,12.3c-0.4,0.1 -0.7,0.2 -1.1,0.2c1.4,-3.9 1.8,-8.1 1.6,-12.2c-0.9,0.2 -1.9,0.4 -2.8,0.5c-0.1,3.8 -0.7,7.6 -2.1,11.1c-0.3,-0.1 -0.7,-0.1 -1,-0.2c1.4,-3.4 2,-7 2.1,-10.7c-0.8,0.1 -1.6,0.2 -2.4,0.2c-0.8,3 -1.9,5.9 -3.4,8.7c-0.3,-0.3 -0.5,-0.6 -0.7,-1c1.2,-2.5 2.3,-5 3,-7.7c-0.3,0 -5.3,0 -5.6,0l1.8,-6.8c0,0 18.5,3.3 18.5,3.4v0c0,0.1 0,0.2 0,0.3v0c-0.9,0.3 -1.8,0.6 -2.7,0.9z" id="Shape" fill="#ff7b24"/></g><g data-paper-data="{&quot;index&quot;:null}" id="flipper2" fill-rule="nonzero" stroke-width="1"><path d="M223.8,174.54671c-1.6,-0.7 -3.5,-1 -5.1,-1.7c-0.8,-0.3 -2.3,-0.8 -3.2,-1.6c-0.5,-0.1 -1,-0.3 -1.4,-0.5c-1.1,-0.4 -2.9,-1 -3.4,-2.3c-0.5,-1.2 0.2,-2.1 0.3,-3.2c0,-0.8 0.1,-1.3 0.3,-2.3c0.2,-0.6 0.7,-1.3 1.3,-1.5c0.7,-0.3 1.1,0.3 1.7,-0.2c0.2,-0.2 0.4,-0.9 0.6,-1.2c0.4,-0.7 1.2,-0.9 1.9,-1.1c2,-0.4 3.5,0.9 5.4,0.3c1.9,-0.6 2.4,-1.5 3.9,-1.1c2.3,0.6 4.8,1.4 6.9,2.4c0.4,0.2 0.9,0.5 1.6,0.8c1.1,0.4 2.1,0.8 3.1,1.2c1.9,0.9 7.8,4.2 8.4,5.2z" id="Shape" fill="#000600"/><path d="M223.8,174.54671c-1.6,-0.7 -3.5,-1 -5.1,-1.7c-1.1,-0.4 -3.3,-1.1 -3.8,-2.3c-0.5,-1.2 0.6,-2 0.7,-3.1c0,-0.8 -0.7,-1.4 -0.5,-2.3c0.2,-0.6 0.7,-1.3 1.3,-1.5c0.7,-0.3 2,0.4 2.5,-0.2c0.2,-0.2 0,-0.9 0.2,-1.2c0.4,-0.7 1.2,-0.9 1.9,-1.1c2,-0.4 3.9,0.4 5.8,0.3c0.6,-1.8 2.4,-1.5 3.9,-1.1c2.3,0.6 4.8,1.4 6.9,2.4c1.9,0.9 7.8,4.2 8.4,5.2z" id="Shape" fill="#e85f1a"/><path d="M218.6,172.84671c0,0 -2.3,-0.8 -3.2,-1.6c-0.1,0 -0.2,-0.1 -0.3,-0.1c1.1,-0.4 2.3,-0.7 3.4,-1c-2.5,-0.7 -5.1,-1.1 -7.7,-1.5c0,-0.1 -0.1,-0.1 -0.1,-0.2c-0.1,-0.3 -0.2,-0.6 -0.2,-0.9c3.3,0.4 6.7,0.9 9.8,2c1.2,-0.4 2.5,-0.7 3.7,-1.1c-4,-2.3 -8.3,-4.1 -12.8,-5.4c0,0 0,0 0,-0.1c0.1,-0.3 0.2,-0.6 0.4,-0.8c4.8,1.4 9.4,3.4 13.7,6c0.9,-0.2 1.8,-0.5 2.6,-0.7c-1.6,-1.4 -3.3,-2.8 -5.1,-4.1c-2,-1.4 -4.2,-3 -6.5,-4.3c0.1,0 0.2,0 0.3,-0.1c0.6,-0.1 1.1,-0.1 1.7,0c1.8,1.1 3.5,2.3 5.1,3.5c2,1.4 3.9,3 5.8,4.6c1.2,-0.3 2.4,-0.6 3.6,-0.9c-2.8,-2.9 -5.8,-5.5 -9.2,-7.6c0.4,-0.2 0.8,-0.4 1.1,-0.5c3.4,2.2 6.5,4.8 9.2,7.8c0,0 4.3,-1.4 6.4,-1.9c2.2,1.3 5.2,3.1 5.5,3.7l-22.1,6.6c-1.5,-0.3 -5.1,-1.4 -5.1,-1.4z" id="Shape" fill="#ff7b24"/></g><g data-paper-data="{&quot;index&quot;:null}" id="fin2" stroke-width="1"><path d="M263.1,168.24671c-1.1,-0.3 -2.4,-0.4 -3.5,-0.8c-0.2,-0.1 -0.4,-0.2 -0.7,-0.4c-0.9,-0.7 -0.9,-1.7 -1.4,-2.7c-0.2,-0.1 -0.5,-0.1 -0.7,-0.2c-1.9,-0.7 -0.7,-1.6 -1.9,-2.9c-0.8,-0.8 -1.6,-1.9 -1.3,-3c0.1,-0.3 0,-1.4 -0.3,-1.9c-0.6,-1 -0.2,-1.1 0,-2c0.2,-0.7 -0.1,-1 -0.1,-1.9c0,-0.9 0.3,-1.8 1.1,-2.3c1.3,-0.9 1.8,0.1 2.9,0.5c0.4,-0.9 -1,-3.5 1.5,-1.7c2.4,1.7 4.3,4.1 6.1,6.3c1.2,1.3 2.3,2.6 3.4,3.9c1.3,1.5 2.6,3.1 3.8,4.7c0.7,1 1.2,2.1 1.9,3z" id="Shape" fill="#000600" fill-rule="nonzero"/><path d="M263.6,168.24671c-1.1,-0.3 -2.4,-0.4 -3.5,-0.8c-1.9,-0.7 -1.5,-2.5 -2.7,-3.8c-0.8,-0.8 -0.8,-1 -0.5,-2.1c0.1,-0.3 0.3,-0.6 0.2,-1c-0.1,-0.6 -0.3,-0.4 -0.5,-0.9c-0.6,-1 -0.2,-1.1 0,-2c0.2,-0.7 -0.1,-1 -0.1,-1.9c0,-0.9 0.3,-1.8 1.1,-2.3c1.3,-0.9 1.9,-3 4.4,-1.2c2.6,1.8 4.6,4.5 6.7,6.9c1.3,1.5 2.6,3.1 3.8,4.7c0.7,1 1.2,2.1 1.9,3z" id="Shape" fill="#e85f1a" fill-rule="nonzero"/><path d="M268.1,167.64671l-1.1,0.1c0,-0.1 0,-0.2 -0.1,-0.3c-0.3,-0.5 -0.5,-1 -0.8,-1.6c-1.7,-1.7 -3.6,-3.3 -5.5,-4.8c-2.2,-1.7 -4.8,-3.9 -7.6,-5c-0.2,-0.5 -0.1,-0.7 0,-1.1c2.6,0.9 4.9,2.8 7,4.3c1.4,1.1 2.8,2.2 4.1,3.3c-2.9,-4.4 -6.5,-8.4 -10.6,-11.6c0.2,-0.3 0.4,-0.6 0.7,-0.8c4.6,3.6 8.7,8.3 11.8,13.3c-1.8,-5.4 -4.9,-10.4 -8.8,-14.6c0,-0.6 0.2,-0.8 1.4,0c4.4,4.9 7.7,10.8 9.2,17.1v0c0.2,0.2 0.2,0.4 0.1,0.5c0,0.2 0.1,0.4 0.1,0.6c-0.1,0.2 0,0.4 0.1,0.6z" id="Shape" fill="#f47621" fill-rule="nonzero"/><path d="M260.1,164.94671c-1.1,-0.3 -2.4,-0.4 -3.5,-0.8c-1.9,-0.7 -0.7,-1.6 -1.9,-2.9c-0.8,-0.8 -1.6,-1.9 -1.3,-3c0.1,-0.3 0,-1.4 -0.3,-1.9c-0.6,-1 -0.2,-1.1 0,-2c0.2,-0.7 -0.1,-1 -0.1,-1.9c0,-0.9 0.3,-1.8 1.1,-2.3c1.3,-0.9 1.8,0.1 2.9,0.5c0.4,-0.9 -1,-3.5 1.5,-1.7c2.6,1.8 4.6,4.5 6.7,6.9c1.3,1.5 2.6,3.1 3.8,4.7c0.7,1 1.2,2.1 1.9,3z" id="Shape" fill="url(#color-1)" fill-rule="evenodd"/></g><g data-paper-data="{&quot;index&quot;:null}" id="body" fill-rule="nonzero" stroke-width="1"><path d="M208.4,176.24671c1.7,-1.8 0.9,-3.3 3.3,-4.6c0,0 4.5,-1.4 6.4,-1.9c13.4,-3.9 27.4,-6.9 41.1,-9.1c10,-1.6 21.8,3.1 30.5,7.9c1,0.5 4.3,3.2 5.3,5.4c0.7,1.3 -4.4,-2.8 -7.3,0.1c3.1,0.2 8.2,2.5 7.2,3.7c-3,6.5 -9.3,9.6 -15.1,13.6c-11.6,8.1 -24.1,11.2 -38,9.4c-7.2,-0.9 -13.1,-2.5 -19.5,-6.1c-4.3,-2.4 -9.2,-5.5 -12.7,-8.8z" id="Shape" fill="#f77621"/><path d="M277,165.64671c-2.8,2.7 -5.8,5.8 -6.9,9.7c-1.8,6.5 1.7,13.3 5.8,18.5c-2.9,1.7 -5.9,3.2 -8.9,4.3c-0.1,-0.1 -0.2,-0.2 -0.3,-0.3c-2.5,-3.3 -4.8,-6.8 -5,-11c-0.5,-8.6 5.3,-20.9 13.4,-24.6c1.5,0.5 3,1 4.5,1.6c-0.8,0.5 -1.9,1.2 -2.6,1.8z" id="Shape" fill="#ffffff"/><path d="M241.1,200.74671c-5,-0.6 -8.2,-1.7 -8.2,-1.7c2.6,-6 4.4,-12.5 5,-19c0.4,-4 1.5,-10.3 1,-15.7c3.6,-0.8 7.2,-1.5 10.8,-2.2c0.5,0.3 1.1,0.7 1.6,1.2c10.2,10.9 -1.3,37.5 -1.5,37.8c-2.8,0.2 -5.7,0 -8.7,-0.4z" id="Shape" fill="#ffffff"/><g id="eye"><path d="M281,176.74671c2.5,0.2 4.6,2.5 4.4,4.4c-0.1,1.5 -1.5,2.8 -4,3.1c-3.9,0.5 -5.5,-1.9 -5.4,-4.1c0,-1.6 2.4,-3.6 5,-3.4z" id="Shape" fill="#ffffff"/><path d="M278.8,179.74671c0.1,-0.9 1.6,-1.7 3,-0.8c1.9,1.3 1,4.4 -2,3.6c-0.3,-0.1 -0.6,-0.1 -0.8,-0.3c1,-0.4 1.2,-1.8 0.5,-2.2c-0.2,-0.2 -0.5,-0.3 -0.7,-0.3z" id="Shape" fill="#000600"/><path d="M275.2,185.14671c1.8,2 4.7,2.2 7.1,1.5c0.9,-0.2 1.2,1.1 0.4,1.3c-2.9,0.8 -6.4,0.5 -8.5,-1.8c-0.5,-0.7 0.5,-1.7 1,-1z" id="Shape" fill="#e85f1a"/></g></g><g data-paper-data="{&quot;index&quot;:null}" id="fin" fill-rule="nonzero"><path d="M263.3,174.44671c-2,0.8 -4.1,2.5 -5.6,4.1c-1.5,1.6 -3.1,3.2 -4.7,4.8c-0.7,0.7 -1.7,2.3 -2.8,2.5c-0.7,0.1 -1.2,-0.4 -1.8,-0.5c-0.6,-0.1 -1.3,0.1 -1.8,-0.1c-0.9,-0.3 -1.5,-1.4 -2.1,-2.1c-0.9,-1.2 -1.8,-1.9 -1.7,-3.4c0.1,-1.5 0.1,-3 0.8,-4.3c0.6,-1.1 1,-2.1 1.1,-3.4c0.1,-0.8 0.6,-1.5 1.1,-2.2c0.4,-0.5 1.2,-0.7 1.6,-1.1c2,-2.2 3.8,-3.2 7,-3c1.7,0.1 8.9,3.2 8.9,3.3z" id="Shape" fill="#f47621" stroke-width="1"/><path d="M264,169.14671c0,1.7 0,3.4 0,5.1c0,0.2 -0.1,0.5 -0.3,0.6c-3.8,1.8 -6.5,5.1 -9.4,8c-1.7,1.8 -2.6,3.6 -5.2,3.4c-2.9,-0.3 -4.2,-1.2 -5.9,-3.6c-1.9,-2.7 -0.9,-5.4 0.2,-8.3c1.1,-3 1.2,-4.4 3.7,-6.3c2.2,-1.7 3.9,-3.1 6.9,-3c2,0.1 3.9,1 5.8,1.7c1.3,0.5 3,1 4.1,1.8v0v0c0.2,0.2 0.2,0.4 0.1,0.6zM243.8,178.14671c-0.1,1 -0.1,2.1 0.4,3.1c4.7,-5.1 11.4,-8.9 18.3,-10.5c-0.2,-0.1 -0.3,-0.1 -0.5,-0.2c-3.2,0.3 -6.3,1 -9.2,2.1c-2.9,1.2 -6.4,3 -9,5.5zM252.1,183.34671c2,-2.3 4.3,-4.7 6.6,-6.7v0c-1.7,0.7 -3.3,1.7 -4.8,3.1c-1.5,1.4 -3.1,3.2 -4.4,5.1c0.9,-0.2 1.8,-0.7 2.6,-1.5zM247.9,184.64671c1.6,-2.3 3.6,-4.6 5.4,-6.3c2.7,-2.5 6,-4.2 9.4,-5.2c0.1,-0.3 0.1,-0.7 0.1,-1.1c-6.8,1.5 -13.3,5.4 -17.9,10.4c0,0.1 0.1,0.1 0.1,0.2c0.8,1.1 1.8,1.7 2.9,2zM245.3,173.04671c-0.3,1 -0.7,2 -1,2.9c2,-1.6 4.3,-2.9 6.4,-3.8c2.5,-1.2 5.3,-2 8.1,-2.5c-1.1,-0.3 -2.1,-0.6 -3.2,-0.7c-2.2,-0.3 -4.6,-0.4 -7.1,-0.3c-0.2,0.2 -0.4,0.4 -0.7,0.6c-0.2,0.2 -0.5,0.3 -0.7,0.5c-1.3,1.2 -1.2,1.5 -1.8,3.3zM258.4,167.64671c-1.9,-0.7 -3.7,-1.5 -5.7,-1.2c-1,0.1 -1.8,0.5 -2.5,0.9c2.1,-0.1 4.2,-0.1 6.2,0.2c1.9,0.3 3.9,0.9 5.8,1.6h0.1c-1.2,-0.7 -2.8,-1.1 -3.9,-1.5z" id="Shape" fill="#e85f1a" stroke-width="1"/><path d="M258.44993,167.64397c1.1,0.4 2.69882,0.81387 3.89882,1.51387l-0.19745,-0.02245c-1.9,-0.7 -3.87968,-1.24752 -5.77968,-1.54752c-2,-0.3 -4.1215,-0.34461 -6.2215,-0.24461c0.7,-0.4 1.50301,-0.81395 2.50301,-0.91395c2,-0.3 3.8968,0.51467 5.7968,1.21467z" data-paper-data="{&quot;noHover&quot;:false,&quot;origItem&quot;:[&quot;Path&quot;,{&quot;applyMatrix&quot;:true,&quot;segments&quot;:[[[262.3,191.8],[-1.2,0.7],[0,0]],[[262.2,191.8],[0,0],[-1.9,0.7]],[[256.4,193.4],[1.9,-0.3],[-2,0.3]],[[250.2,193.6],[2.1,0.1],[0.7,0.4]],[[252.7,194.5],[-1,-0.1],[2,0.3]],[[258.4,193.3],[-1.9,0.7],[1.1,-0.4]]],&quot;closed&quot;:true,&quot;fillColor&quot;:[0,0,0,1]}]}" fill="#f47621" stroke-width="0.5"/><path d="M249.46267,184.87998c1.3,-1.9 2.92752,-3.7823 4.42752,-5.1823c1.5,-1.4 3.14713,-2.38424 4.84713,-3.08424v0c-2.3,2 -4.66781,4.4729 -6.66781,6.7729c-0.8,0.8 -1.70684,1.29364 -2.60684,1.49364z" data-paper-data="{&quot;noHover&quot;:false,&quot;origItem&quot;:[&quot;Path&quot;,{&quot;applyMatrix&quot;:true,&quot;segments&quot;:[[[249.5,176.1],[0.9,0.2],[1.3,1.9]],[[253.9,181.2],[-1.5,-1.4],[1.5,1.4]],[[258.7,184.3],[-1.7,-0.7],[0,0]],[[258.7,184.3],[0,0],[-2.3,-2]],[[252.1,177.6],[2,2.3],[-0.8,-0.8]]],&quot;closed&quot;:true,&quot;fillColor&quot;:[0,0,0,1]}]}" fill="#f47621" stroke-width="0.5"/><path d="M244.95503,182.66856c0,-0.1 -0.10048,-0.10103 -0.10048,-0.20103c4.6,-5 11.18634,-8.9496 17.98634,-10.4496c0,0.4 -0.084,0.85411 -0.184,1.15411c-3.4,1 -6.60689,2.67467 -9.30689,5.17467c-1.8,1.7 -3.88433,4.03635 -5.48433,6.33635c-1.1,-0.3 -2.11064,-0.9145 -2.91064,-2.0145z" data-paper-data="{&quot;noHover&quot;:false,&quot;origItem&quot;:[&quot;Path&quot;,{&quot;applyMatrix&quot;:true,&quot;segments&quot;:[[[245,178.3],[0.8,-1.1],[0,0.1]],[[244.9,178.5],[0,-0.1],[4.6,5]],[[262.8,188.9],[-6.8,-1.5],[0,-0.4]],[[262.7,187.8],[0.1,0.3],[-3.4,-1]],[[253.3,182.6],[2.7,2.5],[-1.8,-1.7]],[[247.9,176.3],[1.6,2.3],[-1.1,0.3]]],&quot;closed&quot;:true,&quot;fillColor&quot;:[0,0,0,1]}]}" fill="#f47621" stroke-width="0.5"/><path d="M252.79505,172.59696c2.9,-1.1 6.04778,-1.77606 9.24778,-2.07606c0.2,0.1 0.21335,0.14988 0.41335,0.24988c-6.9,1.6 -13.59906,5.40164 -18.29906,10.50164c-0.5,-1 -0.50572,-2.11398 -0.40572,-3.11398c2.6,-2.5 6.14365,-4.36148 9.04365,-5.56148z" data-paper-data="{&quot;noHover&quot;:false,&quot;origItem&quot;:[&quot;Path&quot;,{&quot;applyMatrix&quot;:true,&quot;segments&quot;:[[[252.8,188.3],[-2.9,-1.2],[2.9,1.1]],[[262,190.4],[-3.2,-0.3],[0.2,-0.1]],[[262.5,190.2],[-0.2,0.1],[-6.9,-1.6]],[[244.2,179.7],[4.7,5.1],[-0.5,1]],[[243.8,182.8],[-0.1,-1],[2.6,2.5]]],&quot;closed&quot;:true,&quot;fillColor&quot;:[0,0,0,1]}]}" fill="#f47621" stroke-width="0.5"/><path d="M247.05654,169.72198c0.2,-0.2 0.50458,-0.30671 0.70458,-0.50671c0.3,-0.2 0.50673,-0.40685 0.70673,-0.60685c2.5,-0.1 4.97077,0.00652 7.17077,0.30652c1.1,0.1 2.10838,0.4147 3.20838,0.7147c-2.8,0.5 -5.59759,1.32469 -8.09759,2.52469c-2.1,0.9 -4.49403,2.21495 -6.49403,3.81495c0.3,-0.9 0.69499,-1.91647 0.99499,-2.91647c0.6,-1.8 0.50617,-2.13083 1.80617,-3.33083z" data-paper-data="{&quot;noHover&quot;:false,&quot;origItem&quot;:[&quot;Path&quot;,{&quot;applyMatrix&quot;:true,&quot;segments&quot;:[[[247.1,191.2],[-1.3,-1.2],[0.2,0.2]],[[247.8,191.7],[-0.2,-0.2],[0.3,0.2]],[[248.5,192.3],[-0.2,-0.2],[2.5,0.1]],[[255.6,192],[-2.2,0.3],[1.1,-0.1]],[[258.8,191.3],[-1.1,0.3],[-2.8,-0.5]],[[250.7,188.8],[2.5,1.2],[-2.1,-0.9]],[[244.3,185],[2,1.6],[0.3,0.9]],[[245.3,187.9],[-0.3,-1],[0.6,1.8]]],&quot;closed&quot;:true,&quot;fillColor&quot;:[0,0,0,1]}]}" fill="#f47621" stroke-width="0.5"/></g><g data-paper-data="{&quot;index&quot;:null}" id="tail" fill-rule="nonzero" stroke-width="1"><path d="M215.5,190.44671c-1.4,-1.1 -4.1,-0.2 -4.1,-0.2c-1.3,-0.2 -9,3.8 -12.9,3.8c-0.2,0.2 -0.5,0.3 -0.8,0.5c-0.9,0.6 -1.7,0.9 -2.7,0.5c-0.8,-0.3 -2,-0.3 -2.9,-0.1c-2.2,0.6 -3.6,0.1 -4.7,-2c-0.6,-1.2 -2.2,-1.6 -2.9,-2.6c-0.5,-0.8 -0.5,-2.2 -0.5,-3.5c0,-1.3 -1.2,-2.5 -0.9,-3.5c0.3,-1 -0.1,-1.5 0.4,-2.3c0.9,-1.5 1,-1.4 0.8,-2.9c-0.1,-0.4 0.6,-2.9 1.4,-4c1.3,-1.8 1.1,-1 2.2,-2.4c0.8,-1.1 2.7,-0.8 3.8,-1.3c1,-0.4 1.4,-0.6 2.5,-0.4c0.2,0 0.4,0.1 0.5,0.1c1,-0.5 1.7,0 3.1,0c3.1,-0.1 6.5,0.4 9.9,1.8v0.1l4.1,-0.4c0,-0.1 6.4,2.1 3.7,18.8z" id="Shape" fill="#e85f1a"/><path d="M215,190.54671c-0.1,0 -0.8,-0.6 -0.8,-0.6c-0.8,-0.3 -2.8,0.3 -2.8,0.3c-0.9,-0.2 -4.9,1.6 -8.7,2.9c7.2,-8.2 5.3,-16.4 -0.4,-22.8c1.8,0.3 3.6,0.7 5.4,1.5v0.1l4.1,-0.4c0,0 0.1,0 0.2,0.1c0,0 4.8,1.4 4.8,9.1c0,7.7 -1.8,9.8 -1.8,9.8z" id="Shape" fill="#120201"/><path d="M214.2,175.04671c1.9,3.8 1.3,9.8 -0.3,14.9c-1.2,0 -2.5,0.4 -2.5,0.4c0,0 -5,1.8 -8.7,2.9c0.9,-1.7 1.6,-3.3 2.2,-4.9c-2.6,0.8 -5.1,1.8 -7.6,2.9c-2.3,1.1 -5.4,2.2 -7.8,3.9c-0.3,-0.1 -0.6,-0.3 -0.9,-0.6c2.4,-1.9 5.6,-3 8.2,-4.2c2.8,-1.3 5.6,-2.4 8.5,-3.2c0.1,-0.2 0.1,-0.4 0.2,-0.7c-3.3,0 -6.6,0.3 -9.9,0.8c-2.7,0.4 -5.4,1 -7.9,1.8c-1,0.3 -2.1,0.6 -3.2,0.9c-0.1,-0.3 -0.2,-0.6 -0.2,-0.9c0.2,0 0.3,-0.1 0.5,-0.1c3.1,-1 6.2,-2 9.5,-2.5c3.8,-0.7 7.7,-1 11.5,-1c0.1,-0.4 0.1,-0.7 0.2,-1.1c-7.4,-0.7 -14.9,-0.3 -22.4,0.4c-0.1,-0.3 -0.3,-0.7 -0.3,-1c7.6,-0.7 15.2,-1.2 22.8,-0.5c0,-0.5 0.1,-1 0.1,-1.5c-7.2,-1.1 -14.6,-1.8 -21.9,-1.8c0.2,-0.4 0.3,-0.6 0.3,-1c7.2,0 14.5,0.7 21.6,1.8c0,-0.7 -0.1,-1.4 -0.2,-2.1c-2.8,-0.6 -5.6,-1.1 -8.4,-1.5c-4.1,-0.6 -8.4,-1.1 -12.6,-1.1c0.1,-0.3 0.3,-0.7 0.4,-1c3.9,0 7.7,0.5 11.5,1c3,0.4 5.9,0.9 8.9,1.6c-0.2,-0.9 -0.5,-1.7 -0.8,-2.5c-2.6,-0.9 -5.3,-1.7 -8,-2.4c-2.4,-0.6 -4.9,-1.3 -7.4,-1.8c0.8,-0.2 1.7,-0.2 2.3,-0.4c0.2,-0.1 0.3,-0.1 0.4,-0.2c4,0.8 8.1,1.9 12,3.3c-0.6,-1.1 -1.2,-2.1 -2,-3.1c1.8,0.3 3.7,0.7 5.6,1.5v0.1l2.5,-0.3c1.5,0.5 2.9,1.5 3.8,3.2z" id="Shape" fill="#ffffff"/><path d="M194,170.74671c-0.7,0.6 -1.3,0.8 -1.7,1.6c-0.3,0.6 0.1,1.3 -0.6,1.8c-0.6,0.5 -1.1,0.6 -1.7,0.9c-1.8,1 -1.4,2.5 -2.3,4.1c-0.9,1.5 -1.8,1.1 -0.8,3.6c0.4,0.9 -0.2,3.6 0.2,4.2c0.5,0.8 0.9,1.7 1.4,2.4c0.5,0.6 1.1,0.8 1.8,1.3c0.4,0.3 1.3,0.6 1.3,0.6c0.3,0.2 -0.1,0.8 0.3,1.1c1.1,0.8 5.2,-0.4 4.9,1.2c0.4,0.4 1,0.5 1.8,0.5v0c-0.2,0.2 -0.5,0.3 -0.8,0.5c-0.9,0.6 -1.7,0.9 -2.7,0.5c-0.8,-0.3 -2,-0.3 -2.9,-0.1c-2.2,0.6 -3.6,0.1 -4.7,-2c-0.6,-1.2 -2.2,-1.6 -2.9,-2.6c-0.6,-0.8 -0.6,-2.2 -0.6,-3.5c0,-1.3 -1.2,-2.5 -0.9,-3.5c0.3,-1 -0.1,-1.5 0.4,-2.3c0.9,-1.5 1,-1.4 0.8,-2.9c-0.1,-0.4 0.6,-2.9 1.4,-4c1.3,-1.8 1.1,-1 2.2,-2.4c0.8,-1.1 2.7,-0.8 3.8,-1.3c1,-0.4 1.4,-0.6 2.5,-0.4c0.2,0 0.4,0.1 0.5,0.1c-0.2,0.2 -0.4,0.4 -0.7,0.6z" id="Shape" fill="#120201"/></g></g></g></svg>