<svg version="1.1" xmlns="http://www.w3.org/2000/svg" xmlns:xlink="http://www.w3.org/1999/xlink" width="77.67" height="73.82"><g transform="translate(-202,-144)"><g data-paper-data="{&quot;isPaintingLayer&quot;:true}" fill="none" fill-rule="nonzero" stroke="none" stroke-width="1" stroke-linecap="butt" stroke-linejoin="miter" stroke-miterlimit="10" stroke-dasharray="" stroke-dashoffset="0" font-family="none" font-weight="none" font-size="none" text-anchor="none" style="mix-blend-mode: normal"><path d="M279.67,199.77v0.62c0,6.55 -4.23,11.88 -10.81,13.66c-1.82,0.53 -3.88,0.68 -8.72,0.68c0,0 -0.79,0.05 -2.82,0.57c-2.39,0.62 -4.73,1.23 -7.03,1.81c-0.13,0.04 -0.25,0.07 -0.38,0.09c-1.91,0.42 -3.58,0.62 -5.11,0.62c-0.34,0 -0.68,-0.01 -1,-0.03c-2.21,-0.11 -5.28,-0.9 -8.28,-3.74c-0.14,-0.13 -0.27,-0.26 -0.4,-0.39c-1.8,0.39 -3.83,0.56 -6.21,0.49c-0.25,0.05 -0.55,0.12 -0.89,0.19c-2.23,0.49 -3.82,0.72 -5.25,0.74c-0.1,0.01 -0.3,0.04 -0.64,0.11c-1.75,0.34 -3.28,0.51 -4.65,0.51c-3.12,0 -6.07,-0.76 -8.77,-2.27c-0.26,-0.14 -0.5,-0.29 -0.74,-0.45c-3.84,-2.54 -5.86,-6.99 -5.27,-11.6c0.7,-5.35 3.89,-9.48 8.53,-11.39v-1.18c-0.45,-1.75 -0.47,-3.61 -0.03,-5.4c0.02,-0.15 0.07,-0.66 0.04,-1.7c-0.01,-0.05 -0.01,-0.1 -0.01,-0.14c-0.05,-3.29 -0.06,-5.81 -0.02,-7.66c-1.04,-0.37 -2.04,-0.85 -2.98,-1.44c-3.91,-2.44 -6.23,-6.6 -6.23,-11.14c0,-4.02 1.81,-11.09 13.93,-13.28c2.15,-0.4 5.37,-1.01 9.67,-1.81c0.29,-0.07 0.78,-0.2 1.47,-0.38c1.84,-0.49 3.38,-0.72 4.84,-0.72c1.42,0 2.73,0.18 3.93,0.49c0.55,-0.23 1.11,-0.43 1.68,-0.59c1.85,-0.54 4.09,-0.77 11.61,-0.77c1.85,-0.12 4.3,-0.21 7.46,-0.27c0.39,0 0.79,0.01 1.18,0.04c0.09,0 0.19,-0.01 0.31,-0.01c0.25,-0.02 0.49,-0.03 0.74,-0.03h2.11c6.22,0 11.38,3.03 13.8,8.11c0.07,0.13 0.13,0.27 0.19,0.41c2.01,4.7 1.1,9.96 -2.43,14.08c-2.22,2.64 -5.07,3.71 -7.38,4.34c-1.78,0.53 -3.7,0.7 -6.03,0.55c-0.46,0.38 -1.24,1.07 -2.4,2.26c-0.06,0.06 -0.11,0.12 -0.17,0.18c0.27,0.67 0.57,1.38 0.87,2.13c1.33,3.24 2.01,4.74 2.32,5.38c0.32,0.46 0.62,0.95 0.87,1.46c0.51,1.01 1.25,2.44 2.22,4.28c0.24,-0.03 0.5,-0.07 0.76,-0.1c2.36,-0.44 4.87,-0.18 7.39,0.76c3.53,1.33 6.21,3.8 7.58,6.97l0.27,0.63c0.58,1.37 0.88,2.84 0.88,4.33z" id="ID0.9752935594879091" fill="#f47621"/><path d="M268.41,199.157c0.176,0.411 0.264,0.616 0.264,0.616c0,0 0,0.206 0,0.615c0,1.584 -0.938,2.61 -2.814,3.079c-0.527,0.176 -2.434,0.264 -5.717,0.264c-1.35,0 -3.211,0.308 -5.586,0.924c-2.375,0.615 -4.706,1.218 -6.993,1.803c-1.35,0.295 -2.404,0.411 -3.166,0.353c-0.352,0 -0.792,-0.249 -1.319,-0.748c-0.528,-0.497 -0.792,-0.981 -0.792,-1.451c0,-0.233 0.058,-0.439 0.176,-0.616c0.762,-1.113 2.169,-1.904 4.223,-2.375c2.403,-0.469 3.927,-0.938 4.573,-1.407c-1.583,-2.58 -3.841,-6.538 -6.772,-11.875c-0.763,-1.816 -2.142,-4.808 -4.134,-8.972c-0.295,-0.703 -0.822,-1.847 -1.584,-3.431c-1.407,0.998 -3.05,2.463 -4.926,4.398c-2.17,2.229 -3.753,3.782 -4.75,4.662c-0.41,0.294 -1.055,0.821 -1.935,1.583c-0.118,5.044 0.116,8.943 0.703,11.699c0.821,0.059 1.861,-0.015 3.123,-0.221c1.26,-0.204 2.067,-0.308 2.419,-0.308c0.938,0 1.612,0.411 2.023,1.231c0.233,0.528 0.352,0.968 0.352,1.319c0,2.17 -2.493,3.109 -7.477,2.814c-0.294,0 -1.174,0.163 -2.639,0.484c-1.467,0.323 -2.507,0.483 -3.123,0.483c-0.615,0 -1.451,0.104 -2.507,0.309c-1.056,0.206 -1.906,0.308 -2.551,0.308c-1.231,0 -2.375,-0.293 -3.431,-0.88c-0.352,-0.233 -0.499,-0.586 -0.439,-1.056c0.229,-1.759 1.265,-2.727 3.104,-2.902c2.987,-0.352 4.653,-0.616 4.998,-0.792c0.345,-0.176 0.519,-0.645 0.519,-1.407c0,-0.527 0,-1.349 0,-2.463c0,-1.172 0,-1.993 0,-2.463v-5.981c0,-0.058 -0.118,-0.293 -0.353,-0.703c0.293,-1.113 0.41,-2.668 0.353,-4.662c-0.06,-3.694 -0.06,-6.392 0,-8.093c0.058,-2.463 0.264,-5.482 0.615,-9.06c0.117,-0.88 0.058,-1.377 -0.176,-1.495c-0.646,0.059 -1.701,0.25 -3.166,0.571c-1.467,0.323 -2.522,0.483 -3.167,0.483c-0.822,0 -1.583,-0.22 -2.287,-0.659c-0.703,-0.439 -1.056,-1.04 -1.056,-1.804c0,-1.055 1.642,-1.876 4.926,-2.463c2.169,-0.409 5.454,-1.024 9.852,-1.847c0.293,-0.058 0.997,-0.233 2.111,-0.528c0.88,-0.233 1.553,-0.352 2.023,-0.352c1.641,0 2.463,0.587 2.463,1.76c0,0.938 -0.297,1.789 -0.891,2.551c-0.712,0.47 -1.767,0.747 -3.16,0.835c-1.395,0.088 -2.152,0.206 -2.271,0.353c-0.119,0.147 -0.325,1.451 -0.621,3.914c-0.357,2.814 -0.534,4.78 -0.534,5.894c0,0.646 0,1.935 0,3.87c0,1.877 0,3.313 0,4.31l0.264,0.265l19.527,-18.427c-0.822,-0.058 -2.082,-0.117 -3.782,-0.178c-2.874,-0.058 -4.398,-1.209 -4.574,-3.453c0,-0.354 0.249,-0.782 0.747,-1.285c0.498,-0.502 0.981,-0.812 1.452,-0.931c0.761,-0.236 3.752,-0.354 8.972,-0.354c1.7,-0.118 4.134,-0.206 7.3,-0.266c0.469,0.06 1.145,0.06 2.023,0c0.996,0 1.701,0 2.111,0c1.992,0 3.283,0.616 3.871,1.848c0.352,0.821 0.115,1.701 -0.705,2.639c-0.234,0.294 -0.91,0.587 -2.023,0.88c-0.703,0.234 -1.934,0.234 -3.693,0c-0.764,-0.058 -1.906,-0.058 -3.43,0c-0.176,0.587 -0.529,1.026 -1.057,1.319c-1.35,0.821 -3.049,2.287 -5.102,4.397c-1.701,1.76 -3.401,3.549 -5.102,5.366c0.704,1.877 1.876,4.809 3.519,8.796c1.993,4.868 3.167,7.389 3.519,7.564c0.586,1.174 1.465,2.874 2.639,5.102c2.521,3.988 3.986,5.981 4.398,5.981c1.699,-0.176 4.25,-0.497 7.652,-0.968c0.41,-0.116 0.967,-0.044 1.672,0.22c0.704,0.267 1.143,0.604 1.319,1.014z" id="ID0.23075303388759494" fill="#ffffff"/></g></g></svg>