<svg version="1.1" xmlns="http://www.w3.org/2000/svg" xmlns:xlink="http://www.w3.org/1999/xlink" width="82.90161" height="47.39513" viewBox="0,0,82.90161,47.39513"><g transform="translate(-204.84595,-166.65244)"><g data-paper-data="{&quot;isPaintingLayer&quot;:true}" fill="none" fill-rule="nonzero" stroke="#ffffff" stroke-width="1.99513" stroke-linecap="round" stroke-linejoin="miter" stroke-miterlimit="10" stroke-dasharray="" stroke-dashoffset="0" font-family="none" font-weight="none" font-size="none" text-anchor="none" style="mix-blend-mode: normal"><path d="M210.25,176.8c0,0.982 0.219,1.992 0,2.95c-0.16,0.699 -0.799,1.2 -1.1,1.85c-0.434,0.937 -0.589,2.002 -1.1,2.9c-0.128,0.224 -0.189,-0.109 -0.35,-0.35c-0.643,-0.965 -1.96,-1.796 -1.85,-2.95c0.161,-1.686 1.474,-3.092 2.55,-4.4c0.66,-0.803 2.55,-1.8 2.55,-1.8z" id="ID0.30604277458041906"/><path d="M217.55,204.3c0.616,0.966 1.519,1.803 1.85,2.9c0.102,0.338 -0.713,0.399 -0.75,0.75c-0.091,0.855 0.06,1.761 0.4,2.55c0.412,0.954 1.541,1.607 1.8,2.55c0.091,0.332 -0.742,0.077 -1.1,0c-1.35,-0.291 -2.978,-0.171 -4,-1.1c-0.721,-0.656 -0.651,-1.958 -0.4,-2.9c0.27,-1.014 1.347,-1.629 1.85,-2.55c0.968,-1.771 2.55,-5.5 2.55,-5.5z" id="ID0.718152979388833"/><path d="M244.3,206.5c0,0 0.1,-0.53 0.7,-0.75c2.399,-0.879 4.824,-1.816 7.35,-2.2c0.765,-0.116 1.771,0.106 2.2,0.75c0.471,0.707 0.29,1.752 0,2.55c-0.358,0.986 -1.297,1.659 -1.85,2.55c-0.432,0.696 -0.646,1.518 -1.1,2.2c-0.287,0.431 -0.589,1.013 -1.1,1.1c-1.089,0.186 -2.525,0.438 -3.3,-0.35c-0.614,-0.625 0.336,-1.726 0.4,-2.6c0.07,-0.963 0.315,-1.987 0,-2.9c-0.226,-0.657 -1,-0.967 -1.5,-1.45z" id="ID0.39981374330818653"/><path d="M279.8,177.55c0,0 -0.299,-4.157 0,-6.2c0.192,-1.309 0.605,-2.681 1.45,-3.7c0.491,-0.592 1.438,-0.804 2.2,-0.7c1.189,0.162 2.415,0.639 3.3,1.45c0.812,0.745 1.43,1.85 1.5,2.95c0.074,1.156 -0.089,2.735 -1.1,3.3c-1.395,0.78 -3.244,-0.364 -4.8,0c-1.107,0.259 -1.968,1.149 -2.9,1.8c-0.29,0.202 -0.5,0.5 -0.75,0.75z" id="ID0.26135892141610384"/><path d="M276.15,200.25c0,0 1.9,2.298 1.8,3.65c-0.059,0.802 -1.401,0.808 -2.15,1.1c-0.84,0.327 -1.781,0.375 -2.6,0.75c-0.798,0.366 -1.636,1.859 -2.2,1.45c-0.711,-0.516 -0.662,-2.24 -0.35,-3.3c0.243,-0.825 1.234,-1.201 1.85,-1.8" id="ID0.8067452698014677"/></g></g></svg>