<svg version="1.1" xmlns="http://www.w3.org/2000/svg" xmlns:xlink="http://www.w3.org/1999/xlink" width="71.94627" height="77.44038" viewBox="0,0,71.94627,77.44038"><g transform="translate(-205.00012,-141.99762)"><g data-paper-data="{&quot;isPaintingLayer&quot;:true}" fill="none" fill-rule="nonzero" stroke="none" stroke-width="1" stroke-linecap="butt" stroke-linejoin="miter" stroke-miterlimit="10" stroke-dasharray="" stroke-dashoffset="0" font-family="none" font-weight="none" font-size="none" text-anchor="none" style="mix-blend-mode: normal"><g id="ID0.8163827913813293"><path d="M265.881,199.091c0.233,0.88 -0.161,2.215 -1.186,4.003c-1.023,1.789 -2.105,3.064 -3.246,3.826c-1.141,0.762 -2.911,1.261 -5.308,1.495c-1.931,0.176 -3.73,-0.675 -5.396,-2.551c-1.668,-1.876 -2.617,-3.958 -2.851,-6.245c-0.645,-6.45 -1.464,-11.083 -2.458,-13.898c-0.118,-0.703 -0.439,-1.743 -0.966,-3.122c-0.526,-1.377 -1.725,-2.507 -3.597,-3.387c-1.405,-0.527 -2.837,-1.084 -4.299,-1.671c-0.234,-0.058 -0.526,-0.058 -0.877,0c-0.819,0.234 -2.517,0.703 -5.09,1.407v1.671v6.861c0,0.118 0.044,0.675 0.132,1.671c0.088,0.998 0.132,1.702 0.132,2.111c0.117,0.998 0.265,3.637 0.44,7.916c0.409,0.177 0.849,0.177 1.319,0c1.583,-0.645 2.99,-0.791 4.222,-0.439c0.88,0.294 1.319,0.998 1.319,2.111c0,1.643 -0.865,2.625 -2.595,2.946c-1.73,0.323 -4.266,0.778 -7.608,1.364c-2.698,0.527 -4.692,0.791 -5.981,0.791c-1.994,0 -3.373,-0.469 -4.134,-1.407c-0.176,-1.936 0.82,-3.107 2.99,-3.519c1.76,-0.176 3.519,-0.381 5.277,-0.616c0.234,-0.292 0.353,-0.615 0.353,-0.967c-0.06,-1.349 -0.382,-6.187 -0.968,-14.514c-0.176,-1.993 -0.235,-3.519 -0.176,-4.574c-1.056,-0.058 -1.76,-0.146 -2.111,-0.264c-0.88,-0.293 -1.438,-0.85 -1.671,-1.671v-0.265c0.116,-0.058 0.204,-0.352 0.264,-0.879c0.82,-1.29 1.876,-1.788 3.167,-1.496c0.116,-0.352 0.088,-1.289 -0.089,-2.814c-0.527,-5.57 -0.851,-10.027 -0.967,-13.37c-0.235,-0.233 -0.734,-0.293 -1.496,-0.176c-1.173,0.235 -1.789,0.352 -1.847,0.352c-3.167,0 -4.692,-0.761 -4.574,-2.287c0.117,-1.407 1.319,-2.256 3.606,-2.551c2.052,-0.409 6.362,-1.055 12.931,-1.935c-0.294,0.059 1.788,0.146 6.245,0.264c5.159,0.411 8.766,1.262 10.819,2.551c2.228,1.467 3.723,3.401 4.485,5.806c0.233,0.763 0.293,1.906 0.176,3.431c-0.059,1.525 -0.294,2.609 -0.703,3.254c-1.35,2.463 -4.076,4.662 -8.181,6.598c0,0.176 0.029,0.294 0.088,0.352c1.466,1.056 2.463,1.994 2.991,2.814c1.523,2.463 2.551,6.041 3.078,10.731c0.762,6.393 1.377,10.409 1.847,12.051c0.059,0.352 0.469,0.909 1.231,1.671c0.762,0.764 1.378,1.174 1.848,1.231c1.816,0.118 2.932,-0.703 3.343,-2.463c-0.06,-0.645 0.204,-1.524 0.791,-2.639c0.821,-0.762 1.817,-1.144 2.991,-1.144c1.175,0.002 1.937,0.531 2.29,1.585zM248.289,168.217c0.527,-0.527 0.791,-1.348 0.791,-2.463c0,-2.99 -1.056,-5.13 -3.166,-6.421c-2.111,-1.289 -6.686,-1.876 -13.723,-1.759c-0.527,0 -1.319,0.234 -2.375,0.703c0.177,0.88 0.177,1.613 0,2.199c-0.059,0.88 -0.059,1.701 0,2.463c0.029,1.583 0.089,3.549 0.177,5.894c0.292,3.46 0.439,5.396 0.439,5.805c0.996,-0.058 2.463,-0.352 4.398,-0.879c0.292,-0.293 0.703,-0.616 1.231,-0.968c0.409,-0.117 1.465,-0.176 3.166,-0.176c3.226,0.001 6.247,-1.464 9.062,-4.398z" id="ID0.6007779934443533" fill="#faa83b"/><path d="M255.648,219.438c-3.449,0 -8.526,-1.088 -13.128,-6.269c-0.076,-0.086 -0.151,-0.172 -0.227,-0.259c-1.404,0.801 -2.985,1.382 -4.707,1.702c-1.729,0.322 -4.271,0.779 -7.614,1.365c-3.42,0.665 -5.96,0.975 -7.984,0.975c-6.808,0 -10.652,-2.98 -12.679,-5.48c-1.374,-1.694 -2.213,-3.76 -2.41,-5.932c-0.563,-6.204 2.626,-11.558 8.035,-14.086c-0.079,-1.149 -0.169,-2.451 -0.272,-3.923c-1.735,-1.627 -3.014,-3.71 -3.694,-6.104c-0.278,-0.978 -0.419,-1.99 -0.419,-3.007v-0.265c0,-1.246 0.211,-2.461 0.605,-3.601c0.287,-1.123 0.75,-2.197 1.376,-3.181c0.325,-0.511 0.673,-0.995 1.042,-1.453c-0.008,-0.088 -0.016,-0.177 -0.022,-0.265c-1.784,-0.669 -3.623,-1.739 -5.209,-3.452c-2.405,-2.6 -3.578,-5.997 -3.301,-9.568c0.661,-7.95 7.168,-11.688 12.729,-12.55c2.388,-0.458 6.752,-1.11 13.314,-1.989c1.029,-0.137 2.045,-0.129 3.026,0.012c0.621,0.028 1.998,0.08 4.969,0.158c0.195,0.005 0.391,0.016 0.585,0.031c7.113,0.566 12.132,1.9 15.793,4.199c0.068,0.042 0.135,0.085 0.202,0.129c4.316,2.843 7.401,6.877 8.921,11.667c0.011,0.036 0.022,0.071 0.033,0.107c0.64,2.091 0.844,4.411 0.64,7.289c-0.15,3.249 -0.861,5.917 -2.17,8.135c-0.759,1.344 -1.673,2.609 -2.747,3.801c0.916,2.609 1.583,5.57 2.017,8.929c0.41,-0.031 0.824,-0.047 1.242,-0.047c5.88,0 10.873,3.57 12.72,9.096c0.073,0.221 0.14,0.442 0.199,0.667c1.51,5.689 -1.337,10.658 -2.272,12.291c-1.895,3.312 -4.082,5.77 -6.682,7.506c-2.695,1.8 -6.08,2.878 -10.346,3.296c-0.569,0.054 -1.07,0.076 -1.565,0.076z" id="ID0.0849599870853126" fill="#f47621"/></g><path d="M265.881,199.091c0.233,0.88 -0.161,2.215 -1.186,4.003c-1.023,1.789 -2.105,3.064 -3.246,3.826c-1.141,0.762 -2.911,1.261 -5.308,1.495c-1.931,0.176 -3.73,-0.675 -5.396,-2.551c-1.668,-1.876 -2.617,-3.958 -2.851,-6.245c-0.645,-6.45 -1.464,-11.083 -2.458,-13.898c-0.118,-0.703 -0.439,-1.743 -0.966,-3.122c-0.526,-1.377 -1.725,-2.507 -3.597,-3.387c-1.405,-0.527 -2.837,-1.084 -4.299,-1.671c-0.234,-0.058 -0.526,-0.058 -0.877,0c-0.819,0.234 -2.517,0.703 -5.09,1.407v1.671v6.861c0,0.118 0.044,0.675 0.132,1.671c0.088,0.998 0.132,1.702 0.132,2.111c0.117,0.998 0.265,3.637 0.44,7.916c0.409,0.177 0.849,0.177 1.319,0c1.583,-0.645 2.99,-0.791 4.222,-0.439c0.88,0.294 1.319,0.998 1.319,2.111c0,1.643 -0.865,2.625 -2.595,2.946c-1.73,0.323 -4.266,0.778 -7.608,1.364c-2.698,0.527 -4.692,0.791 -5.981,0.791c-1.994,0 -3.373,-0.469 -4.134,-1.407c-0.176,-1.936 0.82,-3.107 2.99,-3.519c1.76,-0.176 3.519,-0.381 5.277,-0.616c0.234,-0.292 0.353,-0.615 0.353,-0.967c-0.06,-1.349 -0.382,-6.187 -0.968,-14.514c-0.176,-1.993 -0.235,-3.519 -0.176,-4.574c-1.056,-0.058 -1.76,-0.146 -2.111,-0.264c-0.88,-0.293 -1.438,-0.85 -1.671,-1.671v-0.265c0.116,-0.058 0.204,-0.352 0.264,-0.879c0.82,-1.29 1.876,-1.788 3.167,-1.496c0.116,-0.352 0.088,-1.289 -0.089,-2.814c-0.527,-5.57 -0.851,-10.027 -0.967,-13.37c-0.235,-0.233 -0.734,-0.293 -1.496,-0.176c-1.173,0.235 -1.789,0.352 -1.847,0.352c-3.167,0 -4.692,-0.761 -4.574,-2.287c0.117,-1.407 1.319,-2.256 3.606,-2.551c2.052,-0.409 6.362,-1.055 12.931,-1.935c-0.294,0.059 1.788,0.146 6.245,0.264c5.159,0.411 8.766,1.262 10.819,2.551c2.228,1.467 3.723,3.401 4.485,5.806c0.233,0.763 0.293,1.906 0.176,3.431c-0.059,1.525 -0.294,2.609 -0.703,3.254c-1.35,2.463 -4.076,4.662 -8.181,6.598c0,0.176 0.029,0.294 0.088,0.352c1.466,1.056 2.463,1.994 2.991,2.814c1.523,2.463 2.551,6.041 3.078,10.731c0.762,6.393 1.377,10.409 1.847,12.051c0.059,0.352 0.469,0.909 1.231,1.671c0.762,0.764 1.378,1.174 1.848,1.231c1.816,0.118 2.932,-0.703 3.343,-2.463c-0.06,-0.645 0.204,-1.524 0.791,-2.639c0.821,-0.762 1.817,-1.144 2.991,-1.144c1.175,0.002 1.937,0.531 2.29,1.585zM248.289,168.217c0.527,-0.527 0.791,-1.348 0.791,-2.463c0,-2.99 -1.056,-5.13 -3.166,-6.421c-2.111,-1.289 -6.686,-1.876 -13.723,-1.759c-0.527,0 -1.319,0.234 -2.375,0.703c0.177,0.88 0.177,1.613 0,2.199c-0.059,0.88 -0.059,1.701 0,2.463c0.029,1.583 0.089,3.549 0.177,5.894c0.292,3.46 0.439,5.396 0.439,5.805c0.996,-0.058 2.463,-0.352 4.398,-0.879c0.292,-0.293 0.703,-0.616 1.231,-0.968c0.409,-0.117 1.465,-0.176 3.166,-0.176c3.226,0.001 6.247,-1.464 9.062,-4.398z" id="ID0.2135459086857736" fill="#ffffff"/></g></g></svg>