<svg version="1.1" xmlns="http://www.w3.org/2000/svg" xmlns:xlink="http://www.w3.org/1999/xlink" width="77.35" height="82.2"><g transform="translate(-202,-139)"><g data-paper-data="{&quot;isPaintingLayer&quot;:true}" fill="none" fill-rule="nonzero" stroke="none" stroke-width="1" stroke-linecap="butt" stroke-linejoin="miter" stroke-miterlimit="10" stroke-dasharray="" stroke-dashoffset="0" font-family="none" font-weight="none" font-size="none" text-anchor="none" style="mix-blend-mode: normal"><path d="M279.35,152.76c0,3.64 -1.44,7.16 -4.06,9.89l-1.02,1.07c-2.2,2.29 -5.31,3.53 -8.47,3.37l-0.5,-0.02c-1.67,3.7 -3.26,6.87 -4.8,9.59c-1.26,2.24 -2.35,4.49 -3.22,6.66c-0.15,0.36 -0.31,0.72 -0.49,1.06c-0.03,0.06 -0.08,0.16 -0.15,0.3v0.01c0.27,1.96 0.42,3.2 0.5,4.02c0.01,0.1 0.02,0.21 0.02,0.31c0.11,1.74 0.18,3.39 0.21,4.93c3.84,1.59 6.71,4.64 8,8.69c0.46,1.43 0.62,2.95 0.47,4.45c-0.14,1.37 -0.48,2.88 -1.07,4.75c-0.22,0.68 -0.5,1.33 -0.84,1.96c-2,3.66 -5.57,6.11 -9.84,6.75c-1.83,0.29 -3.86,0.36 -6.24,0.2c-1.23,-0.03 -2.23,-0.05 -2.75,-0.02c-1.21,0.09 -3.04,0.2 -5.55,0.33c-0.15,0.01 -0.3,0.01 -0.45,0.01c-0.19,0.01 -0.52,0.03 -0.98,0.05c-1.08,0.06 -1.87,0.08 -2.4,0.08c-5.96,0 -11.01,-2.88 -13.57,-7.73c-1.47,-2.72 -1.85,-5.9 -1.06,-9.03c0.03,-0.11 0.06,-0.22 0.09,-0.33c1.02,-3.59 3.65,-7.35 8.2,-9.38v-1.67c-0.12,-1.62 -0.27,-3.09 -0.45,-4.39c-1.27,-1.26 -2.34,-2.55 -3.23,-3.89c-2,-2.79 -4.03,-5.62 -6.08,-8.47c-0.03,-0.04 -0.05,-0.07 -0.07,-0.1c-1,-1.41 -1.89,-2.75 -2.69,-4.02c-1.17,-0.06 -2.3,-0.22 -3.37,-0.49c-0.21,-0.06 -0.41,-0.11 -0.61,-0.18c-9.09,-2.86 -10.58,-9.65 -10.82,-12.26c-0.04,-0.44 -0.06,-0.87 -0.06,-1.31c0,-4.87 2.41,-9.31 6.61,-12.04c0.11,-0.07 0.22,-0.13 0.32,-0.2c1.85,-1.11 3.8,-1.6 6.34,-2.03c2.05,-0.35 4.66,-0.51 8.22,-0.51c3.59,0 4.98,-0.13 5.41,-0.18c3.52,-0.42 6.47,-0.43 9.1,-0.07c0.08,0.01 0.17,0.02 0.25,0.04c1.7,-1.32 3.67,-2.22 5.78,-2.6c0.18,-0.03 0.36,-0.06 0.54,-0.09c3.47,-0.45 7.81,-0.74 13.25,-0.87l3.89,-0.33c0.05,0 0.09,0 0.14,-0.01c0.63,-0.04 1.25,-0.06 1.83,-0.06c2.51,0 4.83,0.4 6.92,1.18c5.41,2.05 8.75,6.87 8.75,12.58z" id="ID0.6677995841018856" fill="#f47621"/><path d="M267.339,155.05c-0.675,0.704 -1.012,1.056 -1.012,1.056c0,0 -1.202,-0.058 -3.606,-0.176c-0.118,0 -1.495,0.059 -4.134,0.176c-0.411,0.176 -0.792,0.646 -1.144,1.407c-2.347,5.63 -4.517,10.204 -6.51,13.722c-1.525,2.698 -2.814,5.366 -3.87,8.005c-0.527,0.998 -1.114,2.375 -1.759,4.134c0,0.411 0.146,1.35 0.439,2.815c0.233,1.701 0.381,2.873 0.439,3.518c0.176,2.815 0.234,5.309 0.176,7.478c-0.059,1.701 -0.029,3.577 0.089,5.629c0.058,0.411 0.292,0.675 0.703,0.792c1.056,0.06 2.58,0.118 4.574,0.176c1.7,0.176 2.756,0.91 3.167,2.199c-0.06,0.587 -0.265,1.438 -0.616,2.551c-0.352,0.645 -0.968,1.025 -1.847,1.144c-1.056,0.176 -2.405,0.205 -4.047,0.088c-2.053,-0.06 -3.431,-0.06 -4.134,0c-1.115,0.082 -2.874,0.188 -5.278,0.314c-0.176,0 -0.659,0.021 -1.451,0.063c-0.791,0.04 -1.394,0.062 -1.803,0.062c-1.936,0 -3.226,-0.646 -3.87,-1.935c-0.176,-0.293 -0.206,-0.674 -0.088,-1.144c0.585,-2.052 2.521,-3.02 5.805,-2.903c0.41,0 0.821,0 1.231,0c0.586,0.119 1.041,0.06 1.363,-0.174c0.322,-0.234 0.513,-0.759 0.572,-1.578c0.058,-0.583 0.058,-1.372 0,-2.365c-0.06,-1.227 -0.088,-1.912 -0.088,-2.058c0,-0.146 -0.044,-0.613 -0.132,-1.402c-0.088,-0.788 -0.132,-1.329 -0.132,-1.621c0,-2.104 0,-2.891 0,-2.365c-0.293,-4.03 -0.731,-7.33 -1.315,-9.9c-0.234,-0.115 -0.556,-0.32 -0.965,-0.612c-1.463,-1.227 -2.573,-2.425 -3.332,-3.593c-2.046,-2.861 -4.121,-5.752 -6.225,-8.673c-2.63,-3.738 -4.414,-6.805 -5.349,-9.198c-0.526,-0.058 -1.375,0 -2.543,0.176c-1.344,0.235 -2.309,0.352 -2.893,0.352c-0.586,0 -1.11,-0.058 -1.578,-0.176c-2.047,-0.645 -3.1,-1.553 -3.157,-2.727c-0.118,-1.349 0.41,-2.404 1.584,-3.167c0.292,-0.176 1.128,-0.381 2.507,-0.615c1.377,-0.233 3.503,-0.353 6.377,-0.353c3.107,0 5.365,-0.088 6.772,-0.264c2.463,-0.293 4.544,-0.321 6.245,-0.088c0.88,0.176 1.408,0.675 1.584,1.495c0.352,1.818 -0.528,3.021 -2.639,3.606c-0.88,0.295 -2.698,0.499 -5.454,0.616c0,0.587 -0.03,0.821 -0.088,0.703c1.289,2.874 2.492,5.073 3.606,6.598c0.762,1.056 2.169,2.786 4.222,5.189c0.762,1.174 2.023,2.698 3.783,4.574c0.761,-0.997 1.699,-2.639 2.814,-4.926c1.289,-2.756 2.199,-4.604 2.727,-5.542c1.173,-1.876 2.696,-5.071 4.574,-9.588l-0.176,-0.176c-3.694,0.235 -5.938,0.176 -6.729,-0.176c-0.791,-0.352 -1.188,-0.938 -1.188,-1.759c0,-0.704 0.249,-1.393 0.748,-2.067c0.497,-0.674 1.069,-1.069 1.715,-1.188c3.107,-0.409 7.242,-0.674 12.403,-0.792c1.407,-0.116 2.814,-0.233 4.222,-0.352c1.641,-0.117 3.004,0.03 4.09,0.439c1.085,0.411 1.628,1.174 1.628,2.287c0.005,0.824 -0.334,1.585 -1.007,2.289z" id="ID0.7870067665353417" fill="#ffffff"/></g></g></svg>