<svg xmlns="http://www.w3.org/2000/svg" xmlns:xlink="http://www.w3.org/1999/xlink" version="1.1" width="56.39150076293945" height="56.39150076293945" viewBox="0.029249999999999998 0.22925004768371582 56.39150076293945 56.39150076293945">
  <!-- Exported by Scratch - http://scratch.mit.edu/ -->
  <path id="ID0.9340036762878299" fill="none" stroke="#FFFFFF" stroke-width="2" d="M 28.225 1.95 C 35.529 1.95 42.148 4.917 46.941 9.709 C 51.733 14.502 54.7 21.121 54.7 28.425 C 54.7 35.729 51.733 42.348 46.941 47.141 C 42.148 51.933 35.529 54.9 28.225 54.9 C 20.921 54.9 14.302 51.933 9.509 47.141 C 4.717 42.348 1.75 35.729 1.75 28.425 C 1.75 21.121 4.717 14.502 9.509 9.709 C 14.302 4.917 20.921 1.95 28.225 1.95 Z "/>
  <path id="ID0.958426502533257" fill="#FFFFFF" stroke="#FFFFFF" stroke-width="1.995125" d="M 18.75 12.85 C 20.019 12.85 21.169 13.343 22.002 14.14 C 22.835 14.936 23.35 16.036 23.35 17.25 C 23.35 18.464 22.835 19.564 22.002 20.36 C 21.169 21.157 20.019 21.65 18.75 21.65 C 17.481 21.65 16.331 21.157 15.498 20.36 C 14.665 19.564 14.15 18.464 14.15 17.25 C 14.15 16.036 14.665 14.936 15.498 14.14 C 16.331 13.343 17.481 12.85 18.75 12.85 L 18.75 12.85 L 18.75 12.85 L 18.75 12.85 Z "/>
  <path id="ID0.33686691243201494" fill="#C5D6E9" stroke="#FFFFFF" stroke-width="3.4415" stroke-linecap="round" d="M 11.6 24.55 L 11.9 24.85 "/>
</svg>