<svg version="1.1" xmlns="http://www.w3.org/2000/svg" xmlns:xlink="http://www.w3.org/1999/xlink" width="140.50036" height="102.53328" viewBox="0,0,140.50036,102.53328"><g transform="translate(-169.99976,-124)"><g data-paper-data="{&quot;isPaintingLayer&quot;:true}" fill="none" fill-rule="nonzero" stroke="none" stroke-width="1" stroke-linecap="butt" stroke-linejoin="miter" stroke-miterlimit="10" stroke-dasharray="" stroke-dashoffset="0" font-family="none" font-weight="none" font-size="none" text-anchor="none" style="mix-blend-mode: normal"><g data-paper-data="{&quot;index&quot;:null}" id="Body"><g id="Teeth" fill="#ffffff" stroke="#000000"><path d="M261.204,173.34828c-0.668,-0.301 -1.351,-0.627 -2.056,-0.979c0.539,-1.686 1.351,-3.802 1.851,-3.673c0.53,0.136 0.567,2.821 0.205,4.652z"/><path d="M285.884,172.44728c-0.675,-1.892 -1.867,-5.81 -1.182,-6.15c0.683,-0.337 3.066,3.06 3.671,5.09z"/><path d="M280.227,174.71228c-0.584,-1.93 -1.58,-5.907 -0.881,-6.208c0.696,-0.299 2.909,3.226 3.418,5.288z"/><path d="M276.701,175.45328c-0.823,0.161 -1.599,0.307 -2.661,0.37c-0.317,-2.108 -0.669,-5.604 0.004,-5.782c0.692,-0.182 2.291,3.251 2.657,5.412z"/><path d="M268.749,175.52928c0.032,0.902 0,0 0,0c-0.044,-1.926 0.031,-4.637 0.603,-4.708c0.612,-0.078 1.637,2.937 1.83,5.45c-0.004,-0.143 -0.004,-0.196 -0.004,-0.196c0,0 0.004,0.101 0.004,0.196c0,0 -2.4,0.16 -2.433,-0.742z"/><path d="M265.783,175.01528c-0.789,-0.198 -1.562,-0.43 -2.333,-0.701c0.213,-1.886 0.625,-4.324 1.175,-4.308c0.602,0.013 1.213,3.013 1.158,5.009z"/><path d="M298.8,165.03528c-0.609,0.755 -1.433,1.17 -2.234,1.631c-1.275,-1.635 -3.22,-4.414 -2.731,-4.935c0.52,-0.555 3.688,1.634 4.965,3.304z"/><path d="M291.468,169.96928c-0.944,-1.754 -2.682,-5.425 -2.056,-5.875c0.624,-0.448 3.464,2.504 4.358,4.406z"/><path d="M301.641,159.47228c-0.352,0.879 -0.697,1.748 -1.093,2.598c-1.451,-1.445 -3.312,-3.53 -2.93,-4.068c0.34,-0.48 2.402,0.386 4.023,1.47z"/><path d="M288.579,158.75828c0.72,0.034 1.466,0.09 2.237,0.158c0.031,1.783 -0.062,4.075 -0.573,4.137c-0.542,0.067 -1.429,-2.444 -1.664,-4.295z"/><path d="M265.744,165.02928c0.709,1.434 2.008,4.426 1.494,4.77c-0.514,0.34 -2.713,-2.11 -3.381,-3.662z"/><path d="M270.432,163.20128c0.795,1.837 2.233,5.656 1.575,6.045c-0.659,0.389 -3.254,-2.82 -3.989,-4.799z"/><path d="M273.178,162.58228c0.764,-0.371 1.482,-0.714 2.499,-1.054c0.78,1.963 1.903,5.26 1.289,5.609c-0.631,0.355 -2.95,-2.557 -3.788,-4.555z"/><path d="M280.866,160.71828c-0.233,-0.867 0,0 0,0c0.478,1.857 1.009,4.508 0.47,4.729c-0.577,0.233 -2.245,-2.421 -2.996,-4.812c0.035,0.139 0.049,0.189 0.049,0.189c0,0 -0.028,-0.095 -0.049,-0.189c0,0 2.293,-0.784 2.526,0.083z"/><path d="M283.314,159.58528c0.806,-0.102 1.602,-0.172 2.414,-0.202c0.4,1.847 0.781,4.291 0.26,4.479c-0.57,0.208 -2.093,-2.384 -2.674,-4.277z"/><path d="M261.733,166.92428c0.742,1.06 2.148,3.3 1.774,3.648c-0.374,0.347 -2.444,-1.33 -3.166,-2.492z"/></g><path d="M294.993,203.74628c-20.677,19.056 -42.912,10.438 -54.747,-1.809c-0.169,-0.28 -0.406,-0.524 -0.613,-0.607c-0.717,-0.286 -23.428,14.237 -26.678,11.441c-4.525,-3.895 7.287,-22.431 9.458,-26.724c-6.865,-3.862 -15.995,-19.257 -18.362,-25.217l-0.302,-0.232c-3.352,2.58 -8.537,4.795 -12.659,5.139c-3.467,0.286 -21.245,0.357 -18.664,-7.146c0.831,-2.418 5.315,-5.173 7.388,-6.306c8.948,-4.89 19.835,-0.972 22.385,0.006c-1.076,-7.271 -2.037,-16.655 2.068,-22.28c0.992,-1.354 3.437,-3.476 5.185,-2.709c2.424,1.065 3.938,5.58 4.58,7.192c1.801,4.528 1.3,13.485 -4.796,21.388c12.469,14.279 31.096,6.423 35.255,2.709c4.572,-4.082 10.509,-8.724 22.621,-9.454c7.438,0.828 19.602,3.268 24.907,8.999c-10.82,1.562 -29.961,3.213 -36.43,13.578c19.361,9.773 39.021,4.521 48.311,-13.693c3.779,5.021 3.561,13.228 3.396,15.867c-0.746,12.122 -3.605,21.841 -12.303,29.858z" id="Fill" fill="#2f8eff" stroke="none"/><path d="M274.305,217.67628c-6.127,1.045 -23.924,0.296 -34.894,-13.928c-4.554,3.703 -22.714,14.805 -28.098,12.151c-2.268,-1.117 -2.295,-5.513 -1.771,-7.845c1.298,-5.772 6.931,-16.021 10.062,-20.889c-5.57,-4.281 -13.389,-14.242 -17.016,-23.485c-3.553,3.604 -7.95,3.818 -12.537,4.762c-4.221,0.867 -21.067,-0.913 -20.003,-8.405c0.889,-6.244 10.782,-10.963 15.857,-11.86c3.455,-0.611 8.577,-1.189 11.839,0.326c0.77,0.357 1.507,0.789 2.29,1.121c-1.626,-6.874 -1.34,-13.091 1.858,-19.38c0.853,-1.676 3.458,-5.763 5.271,-6.164c4.733,-1.047 8.346,8.427 9.333,12.095c1.891,7.034 -0.559,13.74 -4.477,19.236c7.657,6.771 17.628,8.025 26.381,3.832c0.746,-0.357 1.475,-0.883 2.218,-1.375c12.382,-10.835 17.034,-10.835 22.388,-11.565l0.002,0.002c5.632,-1.438 27.396,5.024 31.43,12.018c0.164,0.283 -0.597,0.925 -0.863,1.027c-2.139,0.797 -29.639,3.807 -34.482,11.8c12.838,5.783 32.494,5.549 43.835,-16.399c5.294,3.852 6.919,10.383 7.345,14.944c2.172,23.188 -11.341,43.778 -35.968,47.981zM303.9,158.01928c-9.289,18.214 -28.949,23.466 -48.31,13.693c6.469,-10.365 25.609,-12.015 36.43,-13.578c-5.306,-5.731 -17.469,-8.171 -24.907,-8.999c-12.113,0.731 -18.05,5.373 -22.622,9.455c-4.159,3.714 -22.786,11.57 -35.255,-2.709c6.096,-7.902 6.597,-16.859 4.796,-21.388c-0.642,-1.612 -2.156,-6.127 -4.58,-7.192c-1.748,-0.767 -4.193,1.354 -5.185,2.709c-4.105,5.625 -3.144,15.01 -2.068,22.28c-2.55,-0.978 -13.437,-4.896 -22.385,-0.006c-2.073,1.133 -6.557,3.888 -7.388,6.306c-2.581,7.504 15.197,7.433 18.664,7.146c4.122,-0.344 9.307,-2.559 12.659,-5.139l0.302,0.232c2.367,5.96 11.497,21.355 18.362,25.217c-2.171,4.293 -13.983,22.829 -9.458,26.724c3.25,2.796 25.961,-11.727 26.678,-11.441c0.208,0.083 0.444,0.327 0.613,0.607c11.835,12.247 34.07,20.865 54.747,1.809c8.698,-8.017 11.557,-17.736 12.303,-29.86c0.165,-2.638 0.384,-10.844 -3.396,-15.866z" id="Outline_2_" fill="#000000" stroke="none"/><path d="M250.43,167.01728c-0.42,1.173 -1.068,2.381 -1.162,3.723c-0.366,5.25 1.541,12.062 5.067,15.809c0.8,0.85 2.735,1.56 1.574,2.76c-0.63,0.648 -2.767,-1.275 -3.663,-2.136c-4.207,-4.042 -7.384,-16.304 -2.904,-21.322c0.629,-0.704 1.513,-0.03 1.088,1.166z" id="Gill_1_" fill="#000000" stroke="none"/><path d="M242.648,186.41228c-1.53,-3.207 -2.486,-7.953 -2.107,-11.333c0.332,-2.02 0.498,-4.666 2.398,-5.714c0.922,-0.509 1.43,0.475 1.018,1.388c-1.679,3.744 -2.365,6.885 -0.699,11.708c0.519,1.511 0.842,1.77 1.576,3.455c0.843,1.931 -1.209,2.54 -2.186,0.496z" id="Gill" fill="#000000" stroke="none"/></g><g data-paper-data="{&quot;index&quot;:null}" id="Front_Fin" stroke="none"><path d="M238.932,143.89228c0.584,-1.387 3.27,-1.568 4.494,-1.721c5.815,-0.712 12.611,2.865 16.057,7.895c0.774,1.133 1.33,5.035 3.371,4.146c-5.437,9.734 -13.379,7.554 -15.271,6.86c0.257,-0.361 0.385,-1.045 0.431,-1.396c1.006,-7.808 -10.227,-13.066 -9.082,-15.784z" id="Fill_1_" fill="#2f8eff"/><path d="M262.854,154.21328c-2.041,0.889 -2.597,-3.014 -3.371,-4.146c-3.445,-5.029 -10.241,-8.606 -16.057,-7.895c-1.224,0.152 -3.91,0.334 -4.494,1.721c-1.145,2.718 10.087,7.976 9.082,15.785c-0.046,0.351 -0.174,1.034 -0.431,1.396c-0.204,0.287 -0.489,0.371 -0.881,-0.08c-1.707,-9.931 -12.418,-13.063 -12.592,-16.747c-0.195,-4.15 10.781,-4.286 13.341,-3.896c2.462,0.377 4.744,1.031 6.974,2.18c4.009,2.061 8.249,4.464 9.456,8.246c0.292,0.914 -0.095,3.029 -1.027,3.436z" id="Outline_3_" fill="#000000"/></g><g data-paper-data="{&quot;index&quot;:null}" id="L_Eye" stroke="none"><path d="M268.382,220.15028c-2.905,-2.694 -4.61,-7.392 -2.274,-10.146c2.125,-2.504 6.113,-1.892 8.979,0.186c2.557,1.855 4.15,4.842 2.869,7.894c-1.61,3.829 -6.63,4.791 -9.574,2.066z" id="White" fill="#ffffff"/><path d="M275.27,211.59628c1.643,-0.314 3.17,0.616 3.408,2.076c0.238,1.46 -0.901,2.898 -2.547,3.212c-1.644,0.313 -3.171,-0.617 -3.408,-2.077c-0.241,-1.461 0.901,-2.898 2.547,-3.211z" id="Pupil" fill="#000000"/><path d="M280.248,217.88528c-0.818,3.118 -4.346,5.763 -7.199,6.16c-6.484,0.902 -12.686,-6.57 -10.089,-13.44c3.122,-8.263 20.231,-3.952 17.288,7.28zM275.086,210.19028c-2.865,-2.078 -6.854,-2.69 -8.979,-0.186c-2.336,2.754 -0.631,7.452 2.274,10.146c2.944,2.725 7.964,1.763 9.573,-2.066c1.282,-3.052 -0.311,-6.039 -2.868,-7.894z" id="Outline" fill="#000000"/><path d="M275.652,223.07528c-1.305,1.117 -10.721,4.8 -11.715,2.944c-0.123,-0.228 -0.035,-0.69 0.17,-0.839c1.81,-1.314 6.849,-1.195 9.352,-2.114c0.63,-0.231 1.662,-0.718 2.318,-0.583c0.058,0.177 0.025,0.465 -0.125,0.592z" id="Eyebrow" fill="#000000"/></g><g data-paper-data="{&quot;index&quot;:null}" id="R_Eye" stroke="none"><path d="M295.432,209.40828c-3.947,-1.664 -2.334,-10.118 3.346,-9.064c2.103,0.39 2.887,3.289 2.445,5.828c-0.487,2.798 -2.973,4.423 -5.791,3.236z" id="White_1_" fill="#ffffff"/><path d="M299.279,201.66628c1.111,-0.586 2.375,-0.262 2.82,0.727c0.444,0.989 -0.096,2.265 -1.207,2.851c-1.113,0.586 -2.375,0.261 -2.822,-0.727c-0.444,-0.988 0.096,-2.264 1.209,-2.851z" id="Pupil_1_" fill="#000000"/><path d="M300.37,211.09628c-1.812,1.069 -4.886,1.14 -6.573,-0.295c-6.081,-5.168 -0.084,-16.647 7.182,-12.083c4.25,2.67 3.496,9.951 -0.609,12.378zM298.777,200.34428c-5.68,-1.054 -7.293,7.4 -3.346,9.064c2.818,1.187 5.305,-0.438 5.791,-3.236c0.442,-2.539 -0.342,-5.438 -2.445,-5.828z" id="Outline_1_" fill="#000000"/><path d="M296.564,211.41428c0.402,-0.28 1.207,-0.256 1.687,-0.285c1.892,-0.116 5.206,-1.655 6.731,-1.308c0.172,0.039 0.347,0.32 0.322,0.507c-0.199,1.521 -7.367,1.806 -8.514,1.443c-0.125,-0.041 -0.22,-0.222 -0.226,-0.357z" id="Eyebrow_1_" fill="#000000"/></g></g></g></svg>