<svg version="1.1" xmlns="http://www.w3.org/2000/svg" xmlns:xlink="http://www.w3.org/1999/xlink" width="45.91292" height="164.6968"><g transform="translate(-219.40002,-97.5)"><g data-paper-data="{&quot;isPaintingLayer&quot;:true}" fill="none" fill-rule="nonzero" stroke="none" stroke-width="0.66342" stroke-linecap="butt" stroke-linejoin="miter" stroke-miterlimit="10" stroke-dasharray="" stroke-dashoffset="0" font-family="none" font-weight="none" font-size="none" text-anchor="none" style="mix-blend-mode: normal"><path d="M263.24025,149.7138l-15.16289,43.7354l11.27558,-7.2857l-22.9943,67.9475l4.68242,-48.1006l-8.0465,7.5888l5.52267,-42.1252l-12.55755,8.464l7.6886,-34.4011l-10.93669,6.3377l-1.38544,-51.6632l27.78975,-0.0007l-6.09411,31.5397l15.92383,-7.2426l-11.36236,32.1919l15.657,-6.9859" id="Fill" fill="#faec00"/><path d="M265.31292,147.4781l-11.84263,39.6945l11.84263,-7.4078l-30.46364,82.432l1.92405,-48.5l-6.44168,5.1541l5.89144,-41.9945l-12.69387,6.7397l6.269,-33.4338l-9.18401,6.1612l-1.21418,-58.8235l33.281,1.5484l-5.34481,28.4163l14.69723,-5.795l-10.08194,30.8391l13.36144,-5.0307zM258.02517,187.836l-11.29601,7.2976l15.30427,-44.142l-15.66865,6.9905l11.3572,-32.1759l-15.66865,7.1264l6.19451,-32.0584l-26.17538,0.0006l1.33579,49.8096l11.29601,-6.5459l-7.65213,34.2371l12.38925,-8.3505l-5.46588,41.694l7.97576,-7.5212l-4.25751,43.7154z" id="Outline" fill="#231f20"/></g></g></svg>