<svg version="1.1" xmlns="http://www.w3.org/2000/svg" xmlns:xlink="http://www.w3.org/1999/xlink" width="140.44925" height="93.14332" viewBox="0,0,140.44925,93.14332"><g transform="translate(-170.99937,-128.99947)"><g data-paper-data="{&quot;isPaintingLayer&quot;:true}" fill="none" fill-rule="nonzero" stroke="none" stroke-width="1" stroke-linecap="butt" stroke-linejoin="miter" stroke-miterlimit="10" stroke-dasharray="" stroke-dashoffset="0" font-family="none" font-weight="none" font-size="none" text-anchor="none" style="mix-blend-mode: normal"><g data-paper-data="{&quot;index&quot;:null}" id="Body"><g id="Teeth" fill="#ffffff" stroke="#000000"><path d="M257.872,162.66627c0.934,0.166 2.807,0.598 2.764,0.979c-0.041,0.382 -2.015,0.598 -2.984,0.369z"/><path d="M259.081,157.60527c0.918,0.414 2.747,1.351 2.605,1.735c-0.142,0.385 -2.238,0.091 -3.181,-0.399z"/><path d="M258.021,160.56927c0.931,0.164 2.804,0.596 2.762,0.979c-0.042,0.381 -2.015,0.596 -2.984,0.367z"/><path d="M257.658,165.75427c1.054,-0.059 3.195,-0.065 3.244,0.361c0.049,0.424 -2.043,1.161 -3.15,1.16z"/><path d="M260.439,154.55927c0.795,0.629 2.345,1.987 2.117,2.325c-0.227,0.337 -2.191,-0.463 -2.99,-1.169z"/><path d="M262.718,152.29627c0.701,0.737 2.049,2.3 1.777,2.601c-0.273,0.304 -2.107,-0.765 -2.8,-1.578z"/><path d="M257.625,169.07627c1.145,-0.207 3.496,-0.507 3.602,-0.047c0.109,0.459 -2.084,1.553 -3.299,1.701z"/><path d="M258.377,172.67627c1.094,-0.408 3.351,-1.115 3.539,-0.681c0.188,0.434 -1.787,1.896 -2.956,2.256z"/><path d="M259.747,176.35127c1.142,-0.619 3.522,-1.752 3.793,-1.305c0.273,0.447 -1.679,2.368 -2.913,2.949z"/><path d="M261.967,179.90327c1.058,-0.756 3.286,-2.175 3.609,-1.765c0.322,0.411 -1.383,2.558 -2.536,3.288z"/><path d="M267.673,148.07127c0.637,0.793 1.846,2.471 1.549,2.746c-0.299,0.281 -2.033,-0.947 -2.654,-1.818z"/><path d="M264.877,149.99127c0.701,0.736 2.045,2.299 1.774,2.603c-0.273,0.302 -2.108,-0.767 -2.801,-1.579z"/><path d="M280.463,142.03927c0.465,1.064 1.309,3.273 0.901,3.49c-0.408,0.217 -1.963,-1.654 -2.393,-2.8z"/><path d="M276.773,142.72027c0.468,1.065 1.561,3.842 1.156,4.059c-0.406,0.217 -2.214,-2.223 -2.646,-3.369z"/><path d="M273.57,144.31627c0.473,1.062 1.291,3.437 0.885,3.654c-0.409,0.217 -1.961,-1.655 -2.396,-2.801z"/><path d="M270.252,145.99027c0.568,0.848 1.625,2.625 1.308,2.875c-0.319,0.248 -1.943,-1.127 -2.486,-2.05z"/><path d="M264.986,183.28227c1.057,-1.074 3.308,-3.143 3.758,-2.742c0.45,0.401 -1.064,3.192 -2.235,4.257z"/><path d="M288.752,195.26027c0.212,-1.779 0.826,-5.366 1.531,-5.324c0.705,0.042 1.294,3.757 0.969,5.611z"/><path d="M283.124,194.49027c0.307,-1.765 1.104,-5.314 1.807,-5.235c0.699,0.079 1.1,3.821 0.678,5.655z"/><path d="M277.397,193.00927c0.543,-1.705 1.82,-5.108 2.504,-4.93c0.685,0.178 0.565,3.939 -0.103,5.696z"/><path d="M272.536,190.55627c0.668,-1.461 2.175,-4.354 2.766,-4.12c0.593,0.235 0.078,3.577 -0.706,5.07z"/><path d="M268.337,187.27727c0.865,-1.352 2.751,-4.004 3.307,-3.688c0.553,0.316 -0.414,3.552 -1.396,4.92z"/><path d="M300.088,196.00327c-0.399,-1.745 -1.032,-5.329 -0.354,-5.535c0.677,-0.205 2.484,3.082 2.804,4.937z"/><path d="M294.401,195.82827c-0.066,-1.791 -0.012,-5.431 0.691,-5.501c0.703,-0.07 1.858,3.506 1.822,5.389z"/><path d="M305.514,194.68427c-0.634,-1.671 -1.756,-5.131 -1.111,-5.43c0.641,-0.298 2.884,2.701 3.451,4.493z"/></g><path d="M300.825,205.46227c-15.899,12.58 -40.735,9.937 -64.429,-10.459c-0.016,-0.023 -0.027,-0.048 -0.051,-0.069c-0.03,-0.026 -0.072,-0.038 -0.104,-0.062c-0.018,-0.015 -0.035,-0.029 -0.053,-0.044l-0.009,0.008c-0.119,-0.076 -0.257,-0.127 -0.405,-0.167c-0.007,-0.002 -0.014,-0.011 -0.021,-0.013c-0.002,0 -0.005,0.001 -0.007,0.001c-5.099,-1.271 -26.371,17.263 -29.262,9.493c-2.111,-5.676 12.269,-23.271 12.065,-23.49c-1.195,-1.295 -21.843,-14.308 -23.711,-15.456c-0.574,0.799 -0.493,1.903 -0.745,2.836c-2.474,9.083 -9.572,16.984 -19.566,16.259c-4.025,-10.976 7.011,-22.591 16.24,-23.854c-3.145,-4.018 -9.77,-14.127 -8.656,-22.693c0.116,-0.895 0.522,-3.069 0.895,-3.836c0.402,-0.821 1.146,-1.51 2.003,-1.795c2.091,-0.701 5.092,1.021 6.848,2.127c4.993,3.146 7.062,15.918 5.198,23.834c-0.094,0.399 4.111,0.244 4.626,0.244c9.355,-0.004 20.634,-2.509 29.167,-6.354c0,0 5.394,-3.004 6.839,-3.9c4.822,-2.99 11.291,-7.043 17.864,-9.799l-0.001,-0.001c0.967,-0.339 1.932,-0.689 2.922,-0.956c6.377,-1.71 13.711,-1.083 19.102,3.071c-7.721,2.216 -10.643,4.819 -15.65,10.774c-1.879,2.231 -4.449,6.771 -5.029,9.645c-0.787,3.893 -0.933,8.6 0.371,12.146c5.596,15.255 16.358,21.321 28.275,24.248c6.16,1.512 16.803,0.76 22.505,-1.191c-2.208,4.551 -4.138,7.014 -7.221,9.453z" id="Fill" fill="#2f8eff" stroke="none"/><path d="M311.439,193.93927c-0.406,4.838 -6.068,12.301 -9.83,15.077c-11.5,8.498 -26.899,8.996 -37.588,5.308c-9.3,-3.209 -21.121,-10.989 -28.353,-18.042c-5.789,3.564 -26.001,17.617 -30.768,10.324c-1.822,-2.787 -0.468,-6.735 0.699,-9.499c1.403,-3.323 7.499,-14.384 8.804,-16.921c-6.146,-4.046 -18.448,-12.24 -18.448,-12.24c-1.415,9.655 -10.471,18.333 -19.985,19.376c-1.326,0.147 -4.246,0.471 -4.798,-1.228c-0.086,-0.263 -0.149,-2.774 -0.159,-3.212c-0.113,-5.056 0.44,-8.858 3.048,-13.233c1.589,-2.666 2.895,-4.667 5.59,-6.333c3.218,-1.99 5.641,-2.986 8.711,-3.546c-4.069,-3.294 -8.092,-12.164 -8.944,-17.349c-0.608,-3.692 0.261,-10.733 3.68,-12.947c1.934,-1.252 4.472,0.283 6.289,1.04c9.615,4.004 12.146,15.969 10.114,25.679c10.975,0.333 21.154,-2.102 31.114,-6.396c4.197,-1.81 17.432,-10.171 22.313,-12.4c2.15,-0.982 7.264,-2.23 8.106,-2.348c7.357,-1.026 14.02,-0.228 20.217,4.301c1.137,0.83 2.828,1.69 0.932,2.837c-8.8,0.448 -15.527,5.846 -20.358,12.947c-5.05,7.429 -3.39,17.83 1.353,25.05c5.449,8.297 14.928,13.715 24.596,14.889c5.412,0.657 11.229,0.745 16.562,-0.502c1.833,-0.428 4.541,-1.906 5.895,-2.145c0.985,-0.175 1.277,0.709 1.208,1.513zM285.541,197.20027c-11.917,-2.927 -22.68,-8.993 -28.275,-24.248c-1.304,-3.546 -1.158,-8.253 -0.371,-12.146c0.58,-2.873 3.15,-7.413 5.029,-9.645c5.008,-5.955 7.93,-8.559 15.65,-10.774c-5.391,-4.154 -12.725,-4.781 -19.102,-3.071c-0.99,0.267 -1.955,0.617 -2.922,0.956l0.001,0.001c-6.573,2.756 -13.042,6.809 -17.864,9.799c-1.446,0.896 -6.839,3.9 -6.839,3.9c-8.533,3.845 -19.812,6.35 -29.167,6.354c-0.515,0 -4.72,0.155 -4.626,-0.244c1.864,-7.916 -0.205,-20.688 -5.198,-23.834c-1.756,-1.105 -4.757,-2.828 -6.848,-2.127c-0.857,0.285 -1.601,0.974 -2.003,1.795c-0.373,0.767 -0.779,2.941 -0.895,3.836c-1.114,8.566 5.511,18.676 8.656,22.693c-9.229,1.264 -20.265,12.878 -16.24,23.854c9.994,0.726 17.092,-7.175 19.566,-16.259c0.252,-0.933 0.171,-2.037 0.745,-2.836c1.868,1.147 22.516,14.161 23.711,15.456c0.204,0.219 -14.176,17.814 -12.065,23.49c2.891,7.771 24.163,-10.764 29.262,-9.493c0.01,0.002 0.018,0.009 0.028,0.012c0.148,0.04 0.286,0.092 0.405,0.167l0.009,-0.008c0.018,0.015 0.035,0.029 0.053,0.044c0.033,0.023 0.075,0.035 0.104,0.062c0.024,0.021 0.035,0.046 0.051,0.069c23.694,20.396 48.53,23.039 64.429,10.459c3.083,-2.439 5.013,-4.902 7.221,-9.453c-5.702,1.951 -16.345,2.703 -22.505,1.191z" id="Outline" fill="#000000" stroke="none"/><path d="M251.676,159.91227c-0.824,0.959 -1.891,1.864 -2.447,3.106c-2.16,4.856 -2.556,12.048 -0.26,16.932c0.521,1.107 2.242,2.508 0.652,3.213c-0.855,0.381 -2.367,-2.247 -2.98,-3.402c-2.884,-5.418 -1.92,-18.269 4.332,-21.365c0.879,-0.436 1.547,0.538 0.703,1.516z" id="Gill_1_" fill="#000000" stroke="none"/><path d="M237.177,175.45127c-0.458,-3.625 0.193,-8.499 1.73,-11.568c1.025,-1.8 2.097,-4.255 4.379,-4.539c1.113,-0.142 1.289,0.983 0.56,1.7c-2.983,2.932 -4.748,5.663 -4.706,10.872c0.014,1.632 0.249,1.998 0.419,3.876c0.195,2.152 -2.091,1.963 -2.382,-0.341z" id="Gill" fill="#000000" stroke="none"/></g><g data-paper-data="{&quot;index&quot;:null}" id="Fin" stroke="none"><path d="M230.521,137.22327c0.582,-1.295 3.254,-1.467 4.472,-1.606c5.788,-0.664 12.551,2.678 15.978,7.373c0.698,0.96 1.223,4.029 2.82,3.985c-3.22,9.386 -12.646,6.677 -14.507,6.035c0.156,-0.343 0.24,-0.785 0.275,-1.04c1.002,-7.295 -10.177,-12.208 -9.038,-14.747z" id="Fill_1_" fill="#2f8eff"/><path d="M254.325,146.86527c-0.192,0.079 -0.367,0.106 -0.534,0.11c-1.598,0.044 -2.122,-3.025 -2.82,-3.985c-3.427,-4.695 -10.189,-8.037 -15.978,-7.373c-1.218,0.14 -3.89,0.312 -4.472,1.606c-1.139,2.539 10.04,7.452 9.038,14.747c-0.035,0.255 -0.12,0.697 -0.275,1.04c-0.205,0.45 -0.531,0.729 -1.03,0.188c-1.698,-9.274 -12.358,-12.203 -12.531,-15.642c-0.195,-3.877 10.731,-4.004 13.276,-3.642c2.45,0.35 4.717,0.959 6.94,2.033c3.985,1.928 8.209,4.17 9.41,7.702c0.292,0.862 -0.096,2.839 -1.024,3.216z" id="Outline_1_" fill="#000000"/></g><g data-paper-data="{&quot;index&quot;:null}" id="L_Eye" stroke="none"><path d="M261.92,220.31427c-1.579,0.865 -12.219,2.748 -12.952,0.708c-0.089,-0.25 0.083,-0.694 0.326,-0.803c2.15,-0.966 7.48,0.108 10.296,-0.331c0.71,-0.111 1.888,-0.4 2.562,-0.141c0.034,0.189 -0.052,0.469 -0.232,0.567z" fill="#000000"/><path d="M267.695,216.01327c-1.408,2.953 -5.608,4.921 -8.711,4.773c-7.041,-0.332 -12.33,-8.959 -8.385,-15.313c4.747,-7.644 22.169,-0.096 17.096,10.54zM263.547,207.36327c-2.684,-2.614 -6.811,-3.983 -9.5,-1.89c-2.958,2.302 -1.96,7.308 0.66,10.545c2.65,3.276 8.148,3.271 10.521,-0.241c1.893,-2.799 0.717,-6.077 -1.681,-8.414z" fill="#000000"/><path d="M254.707,216.01827c-2.62,-3.237 -3.618,-8.243 -0.66,-10.545c2.689,-2.093 6.816,-0.724 9.5,1.89c2.398,2.337 3.574,5.615 1.682,8.414c-2.374,3.512 -7.872,3.517 -10.522,0.241z" fill="#ffffff"/><path d="M263.555,208.89027c1.80155,0 3.262,1.21689 3.262,2.718c0,1.50111 -1.46045,2.718 -3.262,2.718c-1.80155,0 -3.262,-1.21689 -3.262,-2.718c0,-1.50111 1.46045,-2.718 3.262,-2.718z" fill="#000000"/></g><g data-paper-data="{&quot;index&quot;:null}" id="R_Eye" stroke="none"><path d="M281.598,218.63527c0.512,-0.062 1.281,0.347 1.756,0.549c1.885,0.801 5.771,0.991 7.102,2.04c0.148,0.119 0.191,0.457 0.089,0.615c-0.854,1.289 -7.931,-1.89 -8.878,-2.771c-0.112,-0.099 -0.123,-0.307 -0.069,-0.433z" fill="#000000"/><path d="M285.421,220.16827c-2.222,0.105 -5.229,-1.303 -6.239,-3.419c-3.632,-7.617 7.2,-15.185 12.246,-7.548c2.951,4.467 -0.964,10.729 -6.007,10.967zM288.581,209.62527c-5.043,-3.682 -10.304,3.235 -7.206,6.642c2.211,2.431 5.334,2.145 7.027,-0.168c1.536,-2.098 2.046,-5.111 0.179,-6.474z" fill="#000000"/><path d="M281.375,216.26727c-3.098,-3.407 2.163,-10.324 7.206,-6.642c1.867,1.363 1.356,4.376 -0.179,6.474c-1.693,2.313 -4.816,2.599 -7.027,0.168z" fill="#ffffff"/><path d="M288.536,211.15427c1.33487,0 2.417,0.9017 2.417,2.014c0,1.1123 -1.08213,2.014 -2.417,2.014c-1.33487,0 -2.417,-0.9017 -2.417,-2.014c0,-1.1123 1.08213,-2.014 2.417,-2.014z" fill="#000000"/></g></g></g></svg>